<?xml version="1.0" standalone="no"?>
<!DOCTYPE svg PUBLIC "-//W3C//DTD SVG 1.1//EN" "http://www.w3.org/Graphics/SVG/1.1/DTD/svg11.dtd" >
<svg xmlns="http://www.w3.org/2000/svg">
    <defs>
        <font id="Neutraface2Text-Demi">
            <font-face font-family="Neutraface2Text-Demi"
                       units-per-em="1000"
                       ascent="780"
                       descent="-220"
                       bbox="-65 -269 1256 972"
                    />
            <missing-glyph horiz-adv-x="0" />
            
            <glyph glyph-name="!" unicode="&#x21;" horiz-adv-x="199" d=" M91,210 L74,680 L188,680 L171,210 M159,-6 Q103,-6 83,13.5 Q63,33 63,62 Q63,91 83,110.5 Q103,130 131,130 Q159,130 179,110.5 Q199,91 199,62 Q199,33 159,-6"/> 
            <glyph glyph-name="&quot;" unicode="&#x22;" horiz-adv-x="306" d=" M209,452 L197,680 L306,680 L294,452 M50,452 L38,680 L146,680 L135,452"/> 
            <glyph glyph-name="#" unicode="&#x23;" horiz-adv-x="462" d=" M65,160 L91,264 L31,264 L31,342 L110,342 L133,434 L70,434 L70,513 L152,513 L179,616 L259,616 L233,513 L321,513 L347,616 L428,616 L402,513 L462,513 L462,434 L383,434 L360,342 L422,342 L422,264 L340,264 L314,160 L233,160 L259,264 L171,264 L146,160 M191,342 L279,342 L302,434 L215,434"/> 
            <glyph glyph-name="$" unicode="&#x24;" horiz-adv-x="436" d=" M206,-8 Q134,-1 86,32 Q38,65 16,109 L92,151 Q131,84 206,73 L206,225 Q45,265 45,378 Q45,435 87.5,475.5 Q130,516 206,520 L206,624 L261,624 L261,518 Q358,504 406,431 L339,382 Q313,427 261,440 L261,305 Q349,283 392.5,244 Q436,205 436,144 Q436,76 391.5,36 Q347,-4 261,-8 L261,-117 L206,-117 M206,443 Q138,437 138,386 Q138,361 152.5,346.5 Q167,332 206,321 M261,72 Q341,79 341,135 Q341,163 323.5,180.5 Q306,198 261,211"/> 
            <glyph glyph-name="%" unicode="&#x25;" horiz-adv-x="782" d=" M247,218 Q119,218 73,261 Q27,304 27,369 Q27,434 73,477.5 Q119,521 183,521 Q247,521 293,477.5 Q339,434 339,369 Q339,304 247,218 M193,0 L515,513 L616,513 L294,0 M690,-9 Q562,-9 516,34 Q470,77 470,143 Q470,208 516,251.5 Q562,295 626,295 Q690,295 736,251.5 Q782,208 782,143 Q782,77 690,-9 M154,295 Q212,295 233,315.5 Q254,336 254,369 Q254,402 233,423 Q212,444 183,444 Q154,444 133,423 Q112,402 112,369 Q112,336 154,295 M597,69 Q655,69 676,89.5 Q697,110 697,143 Q697,176 676,196.5 Q655,217 626,217 Q597,217 576.5,196.5 Q556,176 556,143 Q556,110 597,69"/> 
            <glyph glyph-name="&amp;" unicode="&#x26;" horiz-adv-x="652" d=" M345,377 L475,217 Q502,282 502,365 L597,365 Q597,236 539,139 L652,0 L527,0 L475,64 Q391,-9 278,-9 Q167,-9 103,44 Q39,97 39,184 Q39,258 79,304.5 Q119,351 205,395 Q148,465 148,538 Q148,602 192.5,645 Q237,688 310,688 Q382,688 426,647 Q470,606 470,540 Q470,444 345,377 M294,439 Q377,486 377,540 Q377,570 359,587.5 Q341,605 312,605 Q282,605 263.5,587 Q245,569 245,539 Q245,499 283,452 M417,135 L255,334 Q199,305 173.5,271.5 Q148,238 148,191 Q148,139 181,111 Q214,83 278,83 Q359,83 417,135"/> 
            <glyph glyph-name="'" unicode="&#x27;" horiz-adv-x="146" d=" M50,452 L38,680 L146,680 L135,452"/> 
            <glyph glyph-name="(" unicode="&#x28;" horiz-adv-x="289" d=" M227,-137 Q46,44 46,291 Q46,538 227,719 L289,668 Q153,508 153,291 Q153,74 289,-86"/> 
            <glyph glyph-name=")" unicode="&#x29;" horiz-adv-x="269" d=" M88,-137 L26,-86 Q162,74 162,291 Q162,508 26,668 L88,719 Q269,536 269,291 Q269,46 88,-137"/> 
            <glyph glyph-name="*" unicode="&#x2A;" horiz-adv-x="362" d=" M159,368 L181,486 L91,409 L47,485 L162,524 L47,564 L91,640 L181,563 L159,680 L249,680 L227,563 L318,640 L362,564 L245,524 L362,485 L318,409 L227,486 L249,368"/> 
            <glyph glyph-name="+" unicode="&#x2B;" horiz-adv-x="352" d=" M150,96 L150,214 L39,214 L39,303 L150,303 L150,421 L241,421 L241,303 L352,303 L352,214 L241,214 L241,96"/> 
            <glyph glyph-name="," unicode="&#x2C;" horiz-adv-x="181" d=" M48,-114 L86,2 Q44,19 44,64 Q44,92 64.5,111.5 Q85,131 113,131 Q141,131 161,111.5 Q181,92 181,63 Q181,37 160,1 L101,-114"/> 
            <glyph glyph-name="-" unicode="&#x2D;" horiz-adv-x="252" d=" M41,191 L41,282 L252,282 L252,191"/> 
            <glyph glyph-name="." unicode="&#x2E;" horiz-adv-x="180" d=" M140,-6 Q84,-6 63.5,14 Q43,34 43,63 Q43,92 63.5,111.5 Q84,131 112,131 Q140,131 160,111.5 Q180,92 180,63 Q180,34 140,-6"/> 
            <glyph glyph-name="/" unicode="&#x2F;" horiz-adv-x="390" d=" M0,-128 L290,722 L390,722 L100,-128"/> 
            <glyph glyph-name="0" unicode="&#x30;" horiz-adv-x="580" d=" M308,-9 Q199,-9 118.5,67.5 Q38,144 38,257 Q38,371 118.5,446 Q199,521 308,521 Q419,521 499.5,446 Q580,371 580,257 Q580,144 499,67.5 Q418,-9 308,-9 M308,82 Q379,82 426,131 Q473,180 473,257 Q473,335 426,383 Q379,431 308,431 Q238,431 191.5,382.5 Q145,334 145,257 Q145,180 192,131 Q239,82 308,82"/> 
            <glyph glyph-name="1" unicode="&#x31;" horiz-adv-x="234" d=" M131,0 L131,428 L25,428 L25,513 L234,513 L234,0"/> 
            <glyph glyph-name="2" unicode="&#x32;" horiz-adv-x="436" d=" M25,0 L25,10 L226,208 Q280,261 301,290.5 Q322,320 322,354 Q322,389 299.5,409 Q277,429 241,429 Q168,429 137,337 L41,364 Q60,438 113,479.5 Q166,521 240,521 Q328,521 377.5,475.5 Q427,430 427,360 Q427,268 316,167 L269,124 Q234,93 214,83 L226,84 Q238,85 253,86 Q268,87 276,87 L436,87 L436,0"/> 
            <glyph glyph-name="3" unicode="&#x33;" horiz-adv-x="472" d=" M244,-103 Q162,-103 105,-66 Q48,-29 19,32 L107,77 Q146,-12 244,-12 Q296,-12 330,20 Q364,52 364,109 Q364,164 327,192.5 Q290,221 229,221 Q174,221 139,202 L129,213 L270,396 L303,432 Q275,428 249,428 L71,428 L71,513 L459,513 L459,504 L316,321 Q297,297 286,291 Q365,285 418.5,236 Q472,187 472,107 Q472,18 410,-42.5 Q348,-103 244,-103"/> 
            <glyph glyph-name="4" unicode="&#x34;" horiz-adv-x="503" d=" M431,91 L503,91 L503,11 L431,11 L431,-94 L331,-94 L331,11 L23,11 L23,73 L419,521 L431,521 M331,91 L331,251 L335,312 Q317,285 301,267 L181,125 L142,88 Q167,91 192,91"/> 
            <glyph glyph-name="5" unicode="&#x35;" horiz-adv-x="460" d=" M235,-103 Q156,-103 102,-69 Q48,-35 24,17 L111,62 Q148,-12 234,-12 Q288,-12 320,19 Q352,50 352,101 Q352,154 320,183.5 Q288,213 228,213 Q149,213 88,162 L78,166 L78,513 L426,513 L426,428 L163,428 L163,278 Q199,300 255,300 Q346,300 403,243.5 Q460,187 460,100 Q460,12 400,-45.5 Q340,-103 235,-103"/> 
            <glyph glyph-name="6" unicode="&#x36;" horiz-adv-x="480" d=" M354,-9 Q166,-9 102,49 Q38,107 38,196 Q38,277 112,382 L270,609 L384,609 L254,423 Q230,389 201,368 Q240,394 287,394 Q370,394 425,339.5 Q480,285 480,198 Q480,106 354,-9 M259,81 Q311,81 344,114.5 Q377,148 377,198 Q377,249 345,282 Q313,315 259,315 Q206,315 173.5,280.5 Q141,246 141,198 Q141,148 173,114.5 Q205,81 259,81"/> 
            <glyph glyph-name="7" unicode="&#x37;" horiz-adv-x="441" d=" M67,-94 L304,428 L31,428 L31,513 L441,513 L441,503 L172,-94"/> 
            <glyph glyph-name="8" unicode="&#x38;" horiz-adv-x="490" d=" M265,-9 Q167,-9 103,43.5 Q39,96 39,180 Q39,234 71,275 Q103,316 158,336 Q77,373 77,457 Q77,526 128,572 Q179,618 265,618 Q353,618 403.5,572.5 Q454,527 454,457 Q454,372 373,335 Q427,315 458.5,274.5 Q490,234 490,180 Q490,96 427,43.5 Q364,-9 265,-9 M210,82 Q320,82 352.5,110 Q385,138 385,187 Q385,236 352,265 Q319,294 265,294 Q210,294 177.5,265 Q145,236 145,187 Q145,138 210,82 M265,374 Q303,374 326,395.5 Q349,417 349,454 Q349,491 326,512.5 Q303,534 265,534 Q226,534 202.5,512.5 Q179,491 179,454 Q179,418 202.5,396 Q226,374 265,374"/> 
            <glyph glyph-name="9" unicode="&#x39;" horiz-adv-x="483" d=" M142,-94 L269,90 Q285,114 319,143 Q284,117 237,117 Q151,117 94.5,171.5 Q38,226 38,314 Q38,405 101.5,463 Q165,521 260,521 Q355,521 419,464.5 Q483,408 483,316 Q483,269 465,227.5 Q447,186 408,128 L257,-94 M206,196 Q314,196 346.5,230.5 Q379,265 379,314 Q379,364 346.5,397.5 Q314,431 260,431 Q207,431 174,397.5 Q141,364 141,314 Q141,263 206,196"/> 
            <glyph glyph-name=":" unicode="&#x3A;" horiz-adv-x="185" d=" M117,220 Q89,220 68.5,240 Q48,260 48,290 Q48,319 68.5,339 Q89,359 117,359 Q145,359 165,339 Q185,319 185,290 Q185,260 164.5,240 Q144,220 117,220 M145,-6 Q89,-6 68.5,14 Q48,34 48,63 Q48,92 68.5,112 Q89,132 117,132 Q145,132 165,112 Q185,92 185,63 Q185,34 145,-6"/> 
            <glyph glyph-name=";" unicode="&#x3B;" horiz-adv-x="186" d=" M146,220 Q90,220 69.5,240 Q49,260 49,290 Q49,319 69.5,339 Q90,359 118,359 Q146,359 166,339 Q186,319 186,290 Q186,260 146,220 M53,-114 L91,2 Q49,19 49,64 Q49,92 69.5,111.5 Q90,131 118,131 Q146,131 166,111.5 Q186,92 186,63 Q186,37 165,1 L106,-114"/> 
            <glyph glyph-name="&lt;" unicode="&#x3C;" horiz-adv-x="314" d=" M314,84 L30,239 L30,249 L314,402 L314,313 L175,243 L314,174"/> 
            <glyph glyph-name="=" unicode="&#x3D;" horiz-adv-x="348" d=" M39,280 L39,368 L348,368 L348,280 M39,134 L39,222 L348,222 L348,134"/> 
            <glyph glyph-name="&gt;" unicode="&#x3E;" horiz-adv-x="327" d=" M43,84 L43,173 L181,243 L43,312 L43,402 L327,247 L327,237"/> 
            <glyph glyph-name="?" unicode="&#x3F;" horiz-adv-x="445" d=" M175,208 L175,376 L214,376 Q275,376 308,409 Q341,442 341,491 Q341,537 311.5,567.5 Q282,598 235,598 Q154,598 113,520 L31,567 Q84,689 235,689 Q330,689 387.5,632.5 Q445,576 445,491 Q445,411 398,359.5 Q351,308 270,299 L270,208 M249,-6 Q193,-6 173,13.5 Q153,33 153,62 Q153,91 173,110.5 Q193,130 221,130 Q249,130 269,110.5 Q289,91 289,62 Q289,33 249,-6"/> 
            <glyph glyph-name="@" unicode="&#x40;" horiz-adv-x="861" d=" M462,-207 Q281,-207 162.5,-97 Q44,13 44,193 Q44,309 101.5,402.5 Q159,496 253.5,546.5 Q348,597 458,597 Q636,597 748.5,493 Q861,389 861,226 Q861,112 815.5,53.5 Q770,-5 691,-5 Q588,-5 564,80 Q522,-9 424,-9 Q350,-9 299.5,46 Q249,101 249,186 Q249,271 299,327.5 Q349,384 423,384 Q505,384 544,310 L542,374 L640,374 L640,145 Q640,106 652.5,88 Q665,70 694,70 Q773,70 773,225 Q773,363 688.5,441 Q604,519 458,519 Q317,519 227.5,427.5 Q138,336 138,193 Q138,49 224.5,-39.5 Q311,-128 461,-128 Q548,-128 623,-95 L656,-166 Q570,-207 462,-207 M450,74 Q490,74 517,106.5 Q544,139 544,186 Q544,234 517,267 Q490,300 450,300 Q406,300 379.5,268 Q353,236 353,186 Q353,137 379.5,105.5 Q406,74 450,74"/> 
            <glyph glyph-name="A" unicode="&#x41;" horiz-adv-x="630" d=" M29,0 L320,687 L332,687 L630,0 L520,0 L470,124 L181,124 L131,0 M217,212 L432,212 L358,397 Q330,465 324,497 L322,490 Q320,482 316.5,471.5 Q313,461 309,448.5 Q305,436 300,422 Q295,408 291,397"/> 
            <glyph glyph-name="B" unicode="&#x42;" horiz-adv-x="557" d=" M82,0 L82,680 L324,680 Q421,680 473,630.5 Q525,581 525,503 Q525,451 499,413 Q473,375 424,360 Q557,329 557,193 Q557,107 500.5,53.5 Q444,0 341,0 M188,93 L335,93 Q392,93 421.5,122 Q451,151 451,201 Q451,252 419.5,281 Q388,310 329,310 L188,310 M188,399 L318,399 Q370,399 395.5,424 Q421,449 421,493 Q421,587 316,587 L188,587"/> 
            <glyph glyph-name="C" unicode="&#x43;" horiz-adv-x="682" d=" M400,-9 Q253,-9 152,90 Q51,189 51,340 Q51,490 152,589 Q253,688 400,688 Q582,688 672,553 L591,495 Q528,593 400,593 Q295,593 227,521 Q159,449 159,340 Q159,231 227,158.5 Q295,86 400,86 Q529,86 601,193 L682,136 Q587,-9 400,-9"/> 
            <glyph glyph-name="D" unicode="&#x44;" horiz-adv-x="632" d=" M82,0 L82,680 L269,680 Q432,680 532,586.5 Q632,493 632,340 Q632,187 532.5,93.5 Q433,0 269,0 M188,93 L262,93 Q390,93 456,160 Q522,227 522,340 Q522,453 456,520 Q390,587 262,587 L188,587"/> 
            <glyph glyph-name="E" unicode="&#x45;" horiz-adv-x="528" d=" M82,0 L82,680 L514,680 L514,587 L188,587 L188,387 L477,387 L477,296 L188,296 L188,93 L528,93 L528,0"/> 
            <glyph glyph-name="F" unicode="&#x46;" horiz-adv-x="506" d=" M82,0 L82,680 L506,680 L506,587 L188,587 L188,368 L476,368 L476,274 L188,274 L188,0"/> 
            <glyph glyph-name="G" unicode="&#x47;" horiz-adv-x="678" d=" M414,-9 Q255,-9 153,89 Q51,187 51,340 Q51,492 149.5,590 Q248,688 400,688 Q560,688 641,597 L570,526 Q506,593 400,593 Q294,593 226.5,521 Q159,449 159,340 Q159,230 229,158 Q299,86 414,86 Q517,86 581,130 L581,257 L398,257 L398,349 L678,349 L678,78 Q639,43 570,17 Q501,-9 414,-9"/> 
            <glyph glyph-name="H" unicode="&#x48;" horiz-adv-x="621" d=" M82,0 L82,680 L188,680 L188,377 L515,377 L515,680 L621,680 L621,0 L515,0 L515,283 L188,283 L188,0"/> 
            <glyph glyph-name="I" unicode="&#x49;" horiz-adv-x="191" d=" M86,0 L86,680 L191,680 L191,0"/> 
            <glyph glyph-name="J" unicode="&#x4A;" horiz-adv-x="411" d=" M216,-9 Q81,-9 23,106 L109,159 Q150,86 211,86 Q305,86 305,192 L305,680 L411,680 L411,190 Q411,92 358,41.5 Q305,-9 216,-9"/> 
            <glyph glyph-name="K" unicode="&#x4B;" horiz-adv-x="601" d=" M82,0 L82,680 L188,680 L188,414 Q188,385 180,313 Q214,378 234,404 L456,680 L575,680 L336,379 L601,0 L474,0 L265,300 L188,207 L188,0"/> 
            <glyph glyph-name="L" unicode="&#x4C;" horiz-adv-x="502" d=" M82,0 L82,680 L188,680 L188,93 L502,93 L502,0"/> 
            <glyph glyph-name="M" unicode="&#x4D;" horiz-adv-x="751" d=" M82,0 L82,687 L93,687 L418,307 L740,687 L751,687 L751,0 L650,0 L650,353 Q650,363 650.5,377 Q651,391 651.5,403 Q652,415 652.5,425.5 Q653,436 654,443 L654,450 L644,436 Q634,422 619.5,402 Q605,382 593,369 L422,163 L410,163 L239,369 Q230,379 219.5,393.5 Q209,408 201,419 Q193,430 186,440 L179,450 L180,443 Q180,436 180.5,425.5 Q181,415 181.5,403 Q182,391 182.5,377 Q183,363 183,353 L183,0"/> 
            <glyph glyph-name="N" unicode="&#x4E;" horiz-adv-x="625" d=" M612,-7 L237,397 L173,473 Q180,417 180,375 L180,0 L82,0 L82,687 L96,687 L471,284 L534,208 Q527,268 527,306 L527,680 L625,680 L625,-7"/> 
            <glyph glyph-name="O" unicode="&#x4F;" horiz-adv-x="752" d=" M402,-9 Q254,-9 152.5,90 Q51,189 51,340 Q51,491 152.5,590 Q254,689 402,689 Q549,689 650.5,590 Q752,491 752,340 Q752,189 650.5,90 Q549,-9 402,-9 M296,86 Q508,86 576,158.5 Q644,231 644,340 Q644,449 576,521.5 Q508,594 402,594 Q296,594 227.5,521.5 Q159,449 159,340 Q159,231 296,86"/> 
            <glyph glyph-name="P" unicode="&#x50;" horiz-adv-x="548" d=" M82,0 L82,680 L301,680 Q412,680 480,624.5 Q548,569 548,461 Q548,354 480,297.5 Q412,241 301,241 L188,241 L188,0 M188,334 L297,334 Q440,334 440,461 Q440,587 297,587 L188,587"/> 
            <glyph glyph-name="Q" unicode="&#x51;" horiz-adv-x="752" d=" M653,93 L752,-17 L682,-76 L580,37 Q500,-9 402,-9 Q254,-9 152.5,90 Q51,189 51,340 Q51,491 152.5,590 Q254,689 402,689 Q549,689 650.5,590 Q752,491 752,340 Q752,192 653,93 M514,110 L420,215 L491,274 L587,167 Q644,235 644,340 Q644,449 576,521.5 Q508,594 402,594 Q296,594 227.5,521.5 Q159,449 159,340 Q159,231 227.5,158.5 Q296,86 402,86 Q463,86 514,110"/> 
            <glyph glyph-name="R" unicode="&#x52;" horiz-adv-x="579" d=" M82,0 L82,680 L310,680 Q421,680 489,626 Q557,572 557,464 Q557,391 520.5,341.5 Q484,292 419,269 L579,0 L458,0 L311,252 L188,252 L188,0 M188,341 L306,341 Q448,341 448,464 Q448,587 306,587 L188,587"/> 
            <glyph glyph-name="S" unicode="&#x53;" horiz-adv-x="487" d=" M266,-9 Q175,-9 113.5,30 Q52,69 21,132 L108,180 Q136,134 171.5,109.5 Q207,85 264,85 Q316,85 349,110.5 Q382,136 382,178 Q382,219 355.5,244 Q329,269 268,296 L223,316 Q142,352 103,396.5 Q64,441 64,515 Q64,591 117.5,639.5 Q171,688 255,688 Q387,688 447,581 L364,530 Q344,565 319,580.5 Q294,596 255,596 Q215,596 191,574 Q167,552 167,517 Q167,480 189,458.5 Q211,437 265,413 L309,393 Q402,352 444.5,304.5 Q487,257 487,179 Q487,92 425.5,41.5 Q364,-9 266,-9"/> 
            <glyph glyph-name="T" unicode="&#x54;" horiz-adv-x="541" d=" M234,0 L234,587 L32,587 L32,680 L541,680 L541,587 L339,587 L339,0"/> 
            <glyph glyph-name="U" unicode="&#x55;" horiz-adv-x="596" d=" M337,-9 Q221,-9 149.5,55 Q78,119 78,239 L78,680 L184,680 L184,245 Q184,86 337,86 Q491,86 491,245 L491,680 L596,680 L596,239 Q596,119 524,55 Q452,-9 337,-9"/> 
            <glyph glyph-name="V" unicode="&#x56;" horiz-adv-x="630" d=" M327,-7 L29,680 L142,680 L295,315 Q304,295 314,265 Q324,235 330,214 L336,194 Q355,269 376,315 L527,680 L630,680 L340,-7"/> 
            <glyph glyph-name="W" unicode="&#x57;" horiz-adv-x="927" d=" M266,-7 L29,680 L140,680 L260,318 Q268,294 286,221 Q316,310 319,318 L475,687 L488,687 L645,318 Q650,306 656,288.5 Q662,271 666,258 Q670,245 673.5,233.5 Q677,222 677,221 Q677,223 681,238.5 Q685,254 691.5,277.5 Q698,301 704,318 L824,680 L927,680 L692,-7 L679,-7 L510,398 Q507,404 482,480 Q482,479 477,465.5 Q472,452 465,432 Q458,412 452,398 L279,-7"/> 
            <glyph glyph-name="X" unicode="&#x58;" horiz-adv-x="613" d=" M35,0 L263,372 L72,680 L189,680 L292,514 Q299,503 306.5,487 Q314,471 320,458 L325,445 Q332,472 356,514 L457,680 L571,680 L383,372 L613,0 L496,0 L355,228 Q327,273 321,297 L316,284 Q311,271 303.5,255.5 Q296,240 289,228 L149,0"/> 
            <glyph glyph-name="Y" unicode="&#x59;" horiz-adv-x="596" d=" M264,0 L264,249 L27,680 L146,680 L277,435 L318,338 Q340,397 359,435 L487,680 L596,680 L370,256 L370,0"/> 
            <glyph glyph-name="Z" unicode="&#x5A;" horiz-adv-x="542" d=" M33,0 L33,11 L377,587 L88,587 L88,680 L542,680 L542,669 L200,93 L535,93 L535,0"/> 
            <glyph glyph-name="[" unicode="&#x5B;" horiz-adv-x="287" d=" M68,-128 L68,722 L287,722 L287,636 L170,636 L170,-42 L287,-42 L287,-128"/> 
            <glyph glyph-name="\" unicode="&#x5C;" horiz-adv-x="416" d=" M316,-128 L26,722 L126,722 L416,-128"/> 
            <glyph glyph-name="]" unicode="&#x5D;" horiz-adv-x="253" d=" M33,-128 L33,-42 L151,-42 L151,636 L33,636 L33,722 L253,722 L253,-128"/> 
            <glyph glyph-name="^" unicode="&#x5E;" horiz-adv-x="366" d=" M61,455 L209,687 L219,687 L366,455 L284,455 L214,554 L143,455"/> 
            <glyph glyph-name="_" unicode="&#x5F;" horiz-adv-x="271" d=" M-2,-128 L-2,-38 L271,-38 L271,-128"/> 
            <glyph glyph-name="`" unicode="&#x60;" horiz-adv-x="289" d=" M211,499 L113,689 L229,689 L289,499"/> 
            <glyph glyph-name="a" unicode="&#x61;" horiz-adv-x="419" d=" M318,250 Q318,345 234,345 Q168,345 124,295 L66,354 Q129,429 242,429 Q322,429 370.5,383 Q419,337 419,248 L419,0 L318,0 L321,60 Q275,-9 189,-9 Q122,-9 80,24 Q38,57 38,124 Q38,187 83,218 Q128,249 203,250 M318,180 L210,180 Q137,180 137,127 Q137,72 217,72 Q262,72 290,92.5 Q318,113 318,147"/> 
            <glyph glyph-name="b" unicode="&#x62;" horiz-adv-x="507" d=" M310,-9 Q206,-9 163,76 L166,0 L64,0 L64,722 L166,722 L166,347 Q214,429 312,429 Q395,429 451,367 Q507,305 507,211 Q507,117 450,54 Q393,-9 310,-9 M229,80 Q339,80 371,116 Q403,152 403,211 Q403,268 370.5,303.5 Q338,339 284,339 Q229,339 195.5,303.5 Q162,268 162,211 Q162,152 229,80"/> 
            <glyph glyph-name="c" unicode="&#x63;" horiz-adv-x="439" d=" M267,-9 Q171,-9 107,53.5 Q43,116 43,210 Q43,304 107,366.5 Q171,429 267,429 Q373,429 437,349 L365,291 Q331,340 267,340 Q212,340 179.5,303.5 Q147,267 147,210 Q147,153 179.5,116.5 Q212,80 267,80 Q328,80 370,127 L439,67 Q373,-9 267,-9"/> 
            <glyph glyph-name="d" unicode="&#x64;" horiz-adv-x="487" d=" M241,-9 Q158,-9 101,54 Q44,117 44,211 Q44,305 101,367 Q158,429 239,429 Q337,429 385,347 L385,722 L487,722 L487,0 L385,0 L388,76 Q345,-9 241,-9 M212,80 Q322,80 355.5,116 Q389,152 389,211 Q389,268 355.5,303.5 Q322,339 267,339 Q213,339 180.5,303.5 Q148,268 148,211 Q148,152 212,80"/> 
            <glyph glyph-name="e" unicode="&#x65;" horiz-adv-x="484" d=" M146,176 Q166,76 279,76 Q351,76 398,121 L457,59 Q389,-9 280,-9 Q173,-9 108,52.5 Q43,114 43,210 Q43,303 107.5,366 Q172,429 267,429 Q373,429 431,358.5 Q489,288 484,176 M146,246 L382,246 Q366,345 268,345 Q219,345 187,319 Q155,293 146,246"/> 
            <glyph glyph-name="f" unicode="&#x66;" horiz-adv-x="356" d=" M102,0 L102,335 L33,335 L33,420 L102,420 L102,586 Q102,735 237,735 Q313,735 356,683 L296,619 Q275,644 247,644 Q203,644 203,587 L203,420 L316,420 L316,335 L203,335 L203,0"/> 
            <glyph glyph-name="g" unicode="&#x67;" horiz-adv-x="487" d=" M269,-222 Q192,-222 136,-192 Q80,-162 50,-112 L123,-58 Q177,-137 264,-137 Q386,-137 386,-1 L386,72 Q343,-9 241,-9 Q158,-9 101,54 Q44,117 44,211 Q44,305 101,367 Q158,429 239,429 Q343,429 389,342 L386,420 L487,420 L487,-6 Q487,-116 427.5,-169 Q368,-222 269,-222 M212,80 Q322,80 355.5,116 Q389,152 389,211 Q389,268 355.5,303.5 Q322,339 267,339 Q213,339 180.5,303.5 Q148,268 148,211 Q148,152 212,80"/> 
            <glyph glyph-name="h" unicode="&#x68;" horiz-adv-x="462" d=" M64,0 L64,722 L165,722 L165,346 Q208,429 305,429 Q376,429 419,381 Q462,333 462,249 L462,0 L361,0 L361,241 Q361,336 274,336 Q224,336 194.5,307.5 Q165,279 165,228 L165,0"/> 
            <glyph glyph-name="i" unicode="&#x69;" horiz-adv-x="185" d=" M146,516 Q90,516 70.5,535 Q51,554 51,583 Q51,611 71,630 Q91,649 118,649 Q145,649 165,630 Q185,611 185,583 Q185,554 146,516 M67,0 L67,420 L169,420 L169,0"/> 
            <glyph glyph-name="j" unicode="&#x6A;" horiz-adv-x="185" d=" M146,516 Q90,516 70.5,535 Q51,554 51,583 Q51,611 71,630 Q91,649 118,649 Q145,649 165,630 Q185,611 185,583 Q185,554 146,516 M38,-222 Q-27,-222 -65,-176 L-14,-112 Q7,-131 28,-131 Q48,-131 57.5,-121 Q67,-111 67,-86 L67,420 L169,420 L169,-83 Q169,-150 134.5,-186 Q100,-222 38,-222"/> 
            <glyph glyph-name="k" unicode="&#x6B;" horiz-adv-x="464" d=" M165,124 L165,0 L64,0 L64,722 L165,722 L165,305 Q165,286 160,231 L328,420 L443,420 L288,245 L464,0 L345,0 L218,179"/> 
            <glyph glyph-name="l" unicode="&#x6C;" horiz-adv-x="169" d=" M68,0 L68,722 L169,722 L169,0"/> 
            <glyph glyph-name="m" unicode="&#x6D;" horiz-adv-x="713" d=" M64,0 L64,420 L165,420 L163,348 Q206,429 288,429 Q376,429 411,349 Q464,429 555,429 Q629,429 671,383 Q713,337 713,256 L713,0 L612,0 L612,246 Q612,291 593.5,313.5 Q575,336 533,336 Q488,336 463.5,309 Q439,282 439,230 L439,0 L338,0 L338,246 Q338,291 320,313.5 Q302,336 260,336 Q214,336 189.5,309 Q165,282 165,230 L165,0"/> 
            <glyph glyph-name="n" unicode="&#x6E;" horiz-adv-x="462" d=" M64,0 L64,420 L165,420 L163,342 Q182,383 220,406 Q258,429 305,429 Q376,429 419,381 Q462,333 462,249 L462,0 L361,0 L361,241 Q361,336 274,336 Q224,336 194.5,307.5 Q165,279 165,228 L165,0"/> 
            <glyph glyph-name="o" unicode="&#x6F;" horiz-adv-x="496" d=" M366,-9 Q174,-9 108.5,54 Q43,117 43,210 Q43,303 108.5,366 Q174,429 270,429 Q366,429 431,366.5 Q496,304 496,210 Q496,116 366,-9 M214,78 Q326,78 359,115 Q392,152 392,210 Q392,268 359,304.5 Q326,341 270,341 Q214,341 180.5,304.5 Q147,268 147,210 Q147,152 214,78"/> 
            <glyph glyph-name="p" unicode="&#x70;" horiz-adv-x="507" d=" M64,-212 L64,420 L166,420 L163,342 Q208,429 312,429 Q394,429 450.5,367 Q507,305 507,211 Q507,117 450,54 Q393,-9 310,-9 Q259,-9 222,13 Q185,35 166,72 L166,-212 M229,80 Q339,80 371,116 Q403,152 403,211 Q403,268 370.5,303.5 Q338,339 284,339 Q229,339 195.5,303.5 Q162,268 162,211 Q162,152 229,80"/> 
            <glyph glyph-name="q" unicode="&#x71;" horiz-adv-x="487" d=" M386,-212 L386,72 Q343,-9 241,-9 Q158,-9 101,54 Q44,117 44,211 Q44,305 101,367 Q158,429 239,429 Q343,429 389,342 L386,420 L487,420 L487,-212 M212,80 Q322,80 355.5,116 Q389,152 389,211 Q389,268 355.5,303.5 Q322,339 267,339 Q213,339 180.5,303.5 Q148,268 148,211 Q148,152 212,80"/> 
            <glyph glyph-name="r" unicode="&#x72;" horiz-adv-x="355" d=" M64,0 L64,420 L165,420 L164,341 Q201,428 286,428 Q326,428 355,410 L321,319 Q293,333 266,333 Q165,333 165,204 L165,0"/> 
            <glyph glyph-name="s" unicode="&#x73;" horiz-adv-x="377" d=" M214,-9 Q147,-9 98,16 Q49,41 26,78 L95,126 Q133,72 208,72 Q282,72 282,117 Q282,138 265,148 Q248,158 199,171 Q187,174 180,176 Q123,192 89.5,220.5 Q56,249 56,305 Q56,365 98,397 Q140,429 206,429 Q294,429 352,366 L293,308 Q257,349 206,349 Q147,349 147,310 Q147,288 165,278 Q183,268 239,254 Q269,246 289.5,238 Q310,230 332,215.5 Q354,201 365.5,177.5 Q377,154 377,122 Q377,63 337.5,27 Q298,-9 214,-9"/> 
            <glyph glyph-name="t" unicode="&#x74;" horiz-adv-x="334" d=" M225,-10 Q96,-10 96,142 L96,335 L33,335 L33,420 L96,420 L96,582 L197,582 L197,420 L309,420 L309,335 L197,335 L197,140 Q197,77 239,77 Q265,77 292,99 L334,30 Q290,-10 225,-10"/> 
            <glyph glyph-name="u" unicode="&#x75;" horiz-adv-x="456" d=" M216,-9 Q146,-9 103,38.5 Q60,86 60,170 L60,420 L161,420 L161,178 Q161,83 248,83 Q298,83 326.5,112 Q355,141 355,192 L355,420 L456,420 L456,0 L355,0 L357,77 Q337,36 300.5,13.5 Q264,-9 216,-9"/> 
            <glyph glyph-name="v" unicode="&#x76;" horiz-adv-x="458" d=" M232,-9 L17,420 L129,420 L214,234 Q223,215 243,144 Q253,194 270,234 L355,420 L458,420 L245,-9"/> 
            <glyph glyph-name="w" unicode="&#x77;" horiz-adv-x="668" d=" M200,-10 L17,420 L129,420 L196,248 L221,169 Q234,217 250,248 L340,428 L350,428 L443,240 Q450,227 457.5,207 Q465,187 469,174 L473,161 Q486,209 498,240 L567,420 L668,420 L484,-10 L473,-10 L369,194 Q357,215 345,264 Q335,225 319,194 L211,-10"/> 
            <glyph glyph-name="x" unicode="&#x78;" horiz-adv-x="468" d=" M24,0 L188,221 L45,420 L165,420 L222,339 Q228,330 234.5,317 Q241,304 244,296 L248,287 Q258,318 273,339 L333,420 L444,420 L304,229 L468,0 L348,0 L273,105 Q251,136 242,162 Q242,161 237.5,151 Q233,141 226,127.5 Q219,114 212,105 L135,0"/> 
            <glyph glyph-name="y" unicode="&#x79;" horiz-adv-x="459" d=" M80,-212 L189,38 L17,420 L129,420 L217,210 Q223,196 229,174 Q235,152 238,138 L241,123 Q250,178 264,210 L354,420 L459,420 L184,-212"/> 
            <glyph glyph-name="z" unicode="&#x7A;" horiz-adv-x="399" d=" M28,0 L28,11 L244,338 L52,338 L52,420 L399,420 L399,409 L182,82 L388,82 L388,0"/> 
            <glyph glyph-name="{" unicode="&#x7B;" horiz-adv-x="357" d=" M286,-128 Q141,-128 141,16 L141,187 Q141,224 127,239 Q113,254 83,254 L26,254 L26,341 L83,341 Q113,341 127,356.5 Q141,372 141,409 L141,578 Q141,722 286,722 L357,722 L357,636 L294,636 Q267,636 255,622 Q243,608 243,575 L243,396 Q243,312 165,298 Q243,284 243,199 L243,19 Q243,-14 255,-28 Q267,-42 294,-42 L357,-42 L357,-128"/> 
            <glyph glyph-name="|" unicode="&#x7C;" horiz-adv-x="177" d=" M80,-128 L80,722 L177,722 L177,-128"/> 
            <glyph glyph-name="}" unicode="&#x7D;" horiz-adv-x="364" d=" M33,-128 L33,-42 L96,-42 Q123,-42 134.5,-28 Q146,-14 146,19 L146,199 Q146,283 225,297 Q146,313 146,397 L146,575 Q146,608 134.5,622 Q123,636 96,636 L33,636 L33,722 L104,722 Q249,722 249,578 L249,409 Q249,372 263,356.5 Q277,341 307,341 L364,341 L364,254 L307,254 Q277,254 263,239 Q249,224 249,187 L249,16 Q249,-128 104,-128"/> 
            <glyph glyph-name="~" unicode="&#x7E;" horiz-adv-x="358" d=" M113,215 L42,222 Q45,282 72,314.5 Q99,347 140,347 Q172,347 206,320 Q241,294 255,294 Q283,294 287,346 L358,339 Q355,278 328.5,246 Q302,214 260,214 Q228,214 194,241 Q191,243 185,248 Q179,253 176.5,254.5 Q174,256 170,259 Q166,262 164,262.5 Q162,263 158.5,264.5 Q155,266 152,266.5 Q149,267 146,267 Q117,267 113,215"/> 
            <glyph glyph-name="¡" unicode="&#xA1;" horiz-adv-x="205" d=" M163,544 Q105,544 84,564.5 Q63,585 63,615 Q63,645 84,665.5 Q105,686 134,686 Q163,686 184,665.5 Q205,645 205,615 Q205,585 163,544 M77,0 L94,466 L174,466 L191,0"/> 
            <glyph glyph-name="¢" unicode="&#xA2;" horiz-adv-x="441" d=" M237,-7 Q152,4 97.5,64 Q43,124 43,210 Q43,296 97.5,356.5 Q152,417 237,427 L237,535 L292,535 L292,428 Q382,421 440,349 L369,292 Q343,331 292,340 L292,79 Q337,85 374,126 L441,67 Q382,-1 292,-8 L292,-116 L237,-116 M237,339 Q194,329 169.5,294.5 Q145,260 145,210 Q145,160 169.5,125 Q194,90 237,80"/> 
            <glyph glyph-name="£" unicode="&#xA3;" horiz-adv-x="540" d=" M169,253 L73,253 L73,332 L134,332 Q109,396 109,440 Q109,517 164,567.5 Q219,618 312,618 Q380,618 429.5,587 Q479,556 505,502 L421,453 Q402,492 377,509.5 Q352,527 312,527 Q266,527 239,503 Q212,479 212,435 Q212,394 235,332 L395,332 L395,253 L266,253 Q291,182 291,126 L291,117 Q350,80 393,80 Q443,80 479,121 L540,60 Q487,-9 397,-9 Q327,-9 258,45 Q211,-9 141,-9 Q88,-9 56,19 Q24,47 24,92 Q24,135 54,160.5 Q84,186 129,186 Q163,186 198,171 Q191,204 169,253 M200,94 Q163,122 139,122 Q121,122 110.5,113 Q100,104 100,89 Q100,74 111,64.5 Q122,55 140,55 Q183,55 200,94"/> 
            <glyph glyph-name="¥" unicode="&#xA5;" horiz-adv-x="518" d=" M223,0 L223,120 L53,120 L53,188 L222,188 L184,254 L53,254 L53,321 L146,321 L36,513 L150,513 L246,333 Q266,294 279,249 Q286,283 313,333 L413,513 L518,513 L404,321 L496,321 L496,254 L365,254 L327,188 L496,188 L496,120 L326,120 L326,0"/> 
            <glyph glyph-name="§" unicode="&#xA7;" horiz-adv-x="479" d=" M115,392 Q91,429 91,474 Q91,537 137.5,577.5 Q184,618 255,618 Q372,618 423,517 L342,478 Q312,536 259,536 Q225,536 206.5,520 Q188,504 188,477 Q188,430 242,410 L343,371 Q479,320 479,224 Q479,148 397,112 Q421,80 421,34 Q421,-29 375.5,-66 Q330,-103 248,-103 Q180,-103 129,-72.5 Q78,-42 57,4 L138,46 Q169,-20 244,-20 Q279,-20 299.5,-5.5 Q320,9 320,33 Q320,54 306,68 Q292,82 259,95 L168,130 Q96,157 63,193 Q30,229 30,282 Q30,320 53,348.5 Q76,377 115,392 M348,156 Q385,171 385,207 Q385,234 369.5,250.5 Q354,267 315,282 L215,321 Q180,334 158,351 Q125,334 125,297 Q125,269 139.5,252 Q154,235 192,220 L285,185 Q325,169 348,156"/> 
            <glyph glyph-name="¨" unicode="&#xA8;" horiz-adv-x="405" d=" M368,522 Q320,522 302,540 Q284,558 284,582 Q284,607 302,625 Q320,643 344,643 Q368,643 386.5,625 Q405,607 405,582 Q405,558 368,522 M180,522 Q132,522 113.5,540 Q95,558 95,582 Q95,607 113.5,625 Q132,643 156,643 Q180,643 198,625 Q216,607 216,582 Q216,557 180,522"/> 
            <glyph glyph-name="©" unicode="&#xA9;" horiz-adv-x="562" d=" M407,-6 Q191,-6 112.5,69.5 Q34,145 34,257 Q34,370 112,445.5 Q190,521 299,521 Q407,521 484.5,445.5 Q562,370 562,257 Q562,145 407,-6 M299,43 Q388,43 449,103 Q510,163 510,257 Q510,351 449,411.5 Q388,472 299,472 Q209,472 147.5,411.5 Q86,351 86,257 Q86,163 147.5,103 Q209,43 299,43 M303,109 Q238,109 195.5,151 Q153,193 153,257 Q153,322 195.5,364.5 Q238,407 301,407 Q372,407 420,354 L364,303 Q342,331 307,331 Q277,331 259,310.5 Q241,290 241,257 Q241,226 259.5,205 Q278,184 308,184 Q345,184 366,213 L422,163 Q377,109 303,109"/> 
            <glyph glyph-name="ª" unicode="&#xAA;" horiz-adv-x="365" d=" M272,370 Q271,411 253.5,428 Q236,445 203,445 Q151,445 111,403 L55,454 Q111,521 212,521 Q280,521 322.5,483 Q365,445 365,367 L365,158 L272,158 L274,203 Q236,149 166,149 Q109,149 72,177.5 Q35,206 35,260 Q35,314 75,342 Q115,370 178,370 M272,307 L187,307 Q127,307 127,266 Q127,222 189,222 Q227,222 249.5,238.5 Q272,255 272,284"/> 
            <glyph glyph-name="«" unicode="&#xAB;" horiz-adv-x="414" d=" M314,35 L219,198 L219,206 L314,367 L414,367 L317,202 L414,35 M129,35 L35,198 L35,206 L129,367 L230,367 L133,202 L230,35"/> 
            <glyph glyph-name="®" unicode="&#xAE;" horiz-adv-x="475" d=" M172,363 L172,590 L262,590 Q304,590 328,569 Q352,548 352,514 Q352,463 308,446 L356,363 L298,363 L256,438 L226,438 L226,363 M253,259 Q161,259 97.5,320.5 Q34,382 34,475 Q34,568 97.5,630 Q161,692 253,692 Q346,692 410.5,630 Q475,568 475,475 Q475,382 410.5,320.5 Q346,259 253,259 M253,300 Q330,300 379.5,348 Q429,396 429,474 Q429,554 379.5,602 Q330,650 253,650 Q177,650 128.5,602 Q80,554 80,474 Q80,395 128.5,347.5 Q177,300 253,300 M226,479 L262,479 Q298,479 298,513 Q298,543 262,543 L226,543"/> 
            <glyph glyph-name="¯" unicode="&#xAF;" horiz-adv-x="373" d=" M127,528 L127,604 L373,604 L373,528"/> 
            <glyph glyph-name="°" unicode="&#xB0;" horiz-adv-x="292" d=" M217,277 Q111,277 73.5,313 Q36,349 36,399 Q36,451 73.5,486 Q111,521 164,521 Q218,521 255,486 Q292,451 292,399 Q292,349 217,277 M164,340 Q190,340 206,356.5 Q222,373 222,399 Q222,426 206,442.5 Q190,459 164,459 Q138,459 122.5,442.5 Q107,426 107,399 Q107,373 123,356.5 Q139,340 164,340"/> 
            <glyph glyph-name="´" unicode="&#xB4;" horiz-adv-x="387" d=" M211,499 L271,689 L387,689 L289,499"/> 
            <glyph glyph-name="¶" unicode="&#xB6;" horiz-adv-x="540" d=" M265,0 L265,274 L253,274 Q152,274 97,331 Q42,388 42,475 Q42,560 100,620 Q158,680 259,680 L540,680 L540,0 L439,0 L439,591 L366,591 L366,0"/> 
            <glyph glyph-name="·" unicode="&#xB7;" horiz-adv-x="180" d=" M140,181 Q84,181 63.5,201 Q43,221 43,251 Q43,280 63.5,299.5 Q84,319 112,319 Q140,319 160,299.5 Q180,280 180,251 Q180,221 140,181"/> 
            <glyph glyph-name="¸" unicode="&#xB8;" horiz-adv-x="359" d=" M258,-236 Q181,-236 148,-177 L200,-145 Q216,-178 250,-178 Q268,-178 280,-167.5 Q292,-157 292,-138 Q292,-119 279,-107.5 Q266,-96 243,-96 L216,-96 L216,0 L273,0 L273,-46 Q310,-53 334.5,-78 Q359,-103 359,-143 Q359,-185 329,-210.5 Q299,-236 258,-236"/> 
            <glyph glyph-name="º" unicode="&#xBA;" horiz-adv-x="426" d=" M314,149 Q152,149 96,202 Q40,255 40,335 Q40,414 96,467.5 Q152,521 233,521 Q314,521 370,467.5 Q426,414 426,335 Q426,255 314,149 M189,227 Q277,227 304,257 Q331,287 331,335 Q331,383 304,412.5 Q277,442 233,442 Q189,442 163,412.5 Q137,383 137,335 Q137,287 189,227"/> 
            <glyph glyph-name="»" unicode="&#xBB;" horiz-adv-x="414" d=" M219,35 L316,200 L219,367 L320,367 L414,204 L414,196 L320,35 M35,35 L132,200 L35,367 L135,367 L230,204 L230,196 L135,35"/> 
            <glyph glyph-name="¿" unicode="&#xBF;" horiz-adv-x="452" d=" M266,544 Q237,544 216,564.5 Q195,585 195,615 Q195,645 216,665.5 Q237,686 266,686 Q294,686 315.5,665.5 Q337,645 337,615 Q337,585 315.5,564.5 Q294,544 266,544 M251,-9 Q154,-9 100,45.5 Q46,100 46,186 Q46,267 89,317 Q132,367 216,381 L216,473 L313,473 L313,297 L272,297 Q211,297 181.5,265.5 Q152,234 152,186 Q152,143 179,112.5 Q206,82 251,82 Q296,82 323,101 Q350,120 370,162 L452,115 Q402,-9 251,-9"/> 
            <glyph glyph-name="À" unicode="&#xC0;" horiz-adv-x="630" d=" M29,0 L320,687 L332,687 L630,0 L520,0 L470,124 L181,124 L131,0 M217,212 L432,212 L358,397 Q330,465 324,497 L322,490 Q320,482 316.5,471.5 Q313,461 309,448.5 Q305,436 300,422 Q295,408 291,397 M287,744 L189,934 L305,934 L365,744"/> 
            <glyph glyph-name="Á" unicode="&#xC1;" horiz-adv-x="630" d=" M29,0 L320,687 L332,687 L630,0 L520,0 L470,124 L181,124 L131,0 M217,212 L432,212 L358,397 Q330,465 324,497 L322,490 Q320,482 316.5,471.5 Q313,461 309,448.5 Q305,436 300,422 Q295,408 291,397 M287,744 L347,934 L463,934 L365,744"/> 
            <glyph glyph-name="Â" unicode="&#xC2;" horiz-adv-x="630" d=" M29,0 L320,687 L332,687 L630,0 L520,0 L470,124 L181,124 L131,0 M217,212 L432,212 L358,397 Q330,465 324,497 L322,490 Q320,482 316.5,471.5 Q313,461 309,448.5 Q305,436 300,422 Q295,408 291,397 M176,746 L319,951 L330,951 L473,746 L390,746 L325,830 L259,746"/> 
            <glyph glyph-name="Ã" unicode="&#xC3;" horiz-adv-x="630" d=" M29,0 L320,687 L332,687 L630,0 L520,0 L470,124 L181,124 L131,0 M223,751 L149,758 Q153,818 182.5,850.5 Q212,883 258,883 Q296,883 332,857 Q337,854 344,849 Q351,844 354,842 Q357,840 362,837 Q367,834 370.5,833 Q374,832 378.5,831 Q383,830 388,830 Q419,830 425,882 L499,875 Q495,814 466,782 Q437,750 391,750 Q351,750 315,776 Q311,779 303,784 Q295,789 292.5,791 Q290,793 284.5,796 Q279,799 276,800 Q273,801 269,802 Q265,803 261,803 Q229,803 223,751 M217,212 L432,212 L358,397 Q330,465 324,497 L322,490 Q320,482 316.5,471.5 Q313,461 309,448.5 Q305,436 300,422 Q295,408 291,397"/> 
            <glyph glyph-name="Ä" unicode="&#xC4;" horiz-adv-x="630" d=" M29,0 L320,687 L332,687 L630,0 L520,0 L470,124 L181,124 L131,0 M217,212 L432,212 L358,397 Q330,465 324,497 L322,490 Q320,482 316.5,471.5 Q313,461 309,448.5 Q305,436 300,422 Q295,408 291,397 M443,749 Q395,749 377,767 Q359,785 359,809 Q359,834 377,852 Q395,870 419,870 Q443,870 461.5,852 Q480,834 480,809 Q480,785 443,749 M255,749 Q207,749 188.5,767 Q170,785 170,809 Q170,834 188.5,852 Q207,870 231,870 Q255,870 273,852 Q291,834 291,809 Q291,784 255,749"/> 
            <glyph glyph-name="Å" unicode="&#xC5;" horiz-adv-x="630" d=" M29,0 L320,687 L332,687 L630,0 L520,0 L470,124 L181,124 L131,0 M374,737 Q276,737 242,769 Q208,801 208,846 Q208,892 242,924 Q276,956 325,956 Q374,956 408,924 Q442,892 442,846 Q442,801 374,737 M217,212 L432,212 L358,397 Q330,465 324,497 L322,490 Q320,482 316.5,471.5 Q313,461 309,448.5 Q305,436 300,422 Q295,408 291,397 M304,796 Q346,796 359.5,809.5 Q373,823 373,846 Q373,870 359.5,883.5 Q346,897 325,897 Q304,897 290.5,883 Q277,869 277,846 Q277,823 304,796"/> 
            <glyph glyph-name="Æ" unicode="&#xC6;" horiz-adv-x="912" d=" M21,0 L481,680 L898,680 L898,587 L572,587 L572,387 L861,387 L861,296 L572,296 L572,93 L912,93 L912,0 L467,0 L467,118 L210,118 L133,0 M271,207 L467,207 L467,440 Q467,497 475,529 Q465,500 433,450"/> 
            <glyph glyph-name="Ç" unicode="&#xC7;" horiz-adv-x="682" d=" M381,-236 Q304,-236 271,-177 L323,-145 Q340,-178 373,-178 Q391,-178 403,-167.5 Q415,-157 415,-138 Q415,-119 402,-107.5 Q389,-96 366,-96 L339,-96 L339,-3 Q213,18 132,112 Q51,206 51,340 Q51,490 152,589 Q253,688 400,688 Q582,688 672,553 L591,495 Q528,593 400,593 Q295,593 227,521 Q159,449 159,340 Q159,231 227,158.5 Q295,86 400,86 Q529,86 601,193 L682,136 Q587,-9 400,-9 L396,-9 L396,-46 Q433,-53 457.5,-78 Q482,-103 482,-143 Q482,-185 452,-210.5 Q422,-236 381,-236"/> 
            <glyph glyph-name="È" unicode="&#xC8;" horiz-adv-x="528" d=" M82,0 L82,680 L514,680 L514,587 L188,587 L188,387 L477,387 L477,296 L188,296 L188,93 L528,93 L528,0 M266,744 L168,934 L284,934 L344,744"/> 
            <glyph glyph-name="É" unicode="&#xC9;" horiz-adv-x="528" d=" M266,744 L326,934 L442,934 L344,744 M82,0 L82,680 L514,680 L514,587 L188,587 L188,387 L477,387 L477,296 L188,296 L188,93 L528,93 L528,0"/> 
            <glyph glyph-name="Ê" unicode="&#xCA;" horiz-adv-x="528" d=" M155,746 L298,951 L309,951 L452,746 L369,746 L304,830 L238,746 M82,0 L82,680 L514,680 L514,587 L188,587 L188,387 L477,387 L477,296 L188,296 L188,93 L528,93 L528,0"/> 
            <glyph glyph-name="Ë" unicode="&#xCB;" horiz-adv-x="528" d=" M423,749 Q375,749 357,767 Q339,785 339,809 Q339,834 357,852 Q375,870 399,870 Q423,870 441.5,852 Q460,834 460,809 Q460,785 423,749 M235,749 Q187,749 168.5,767 Q150,785 150,809 Q150,834 168.5,852 Q187,870 211,870 Q235,870 253,852 Q271,834 271,809 Q271,784 235,749 M82,0 L82,680 L514,680 L514,587 L188,587 L188,387 L477,387 L477,296 L188,296 L188,93 L528,93 L528,0"/> 
            <glyph glyph-name="Ì" unicode="&#xCC;" horiz-adv-x="191" d=" M86,0 L86,680 L191,680 L191,0 M100,744 L2,934 L118,934 L178,744"/> 
            <glyph glyph-name="Í" unicode="&#xCD;" horiz-adv-x="276" d=" M86,0 L86,680 L191,680 L191,0 M100,744 L160,934 L276,934 L178,744"/> 
            <glyph glyph-name="Î" unicode="&#xCE;" horiz-adv-x="286" d=" M86,0 L86,680 L191,680 L191,0 M-11,746 L132,951 L143,951 L286,746 L203,746 L138,830 L72,746"/> 
            <glyph glyph-name="Ï" unicode="&#xCF;" horiz-adv-x="294" d=" M86,0 L86,680 L191,680 L191,0 M257,749 Q209,749 191,767 Q173,785 173,809 Q173,834 191,852 Q209,870 233,870 Q257,870 275.5,852 Q294,834 294,809 Q294,785 257,749 M69,749 Q21,749 2.5,767 Q-16,785 -16,809 Q-16,834 2.5,852 Q21,870 45,870 Q69,870 87,852 Q105,834 105,809 Q105,784 69,749"/> 
            <glyph glyph-name="Ð" unicode="&#xD0;" horiz-adv-x="632" d=" M82,0 L82,294 L13,294 L13,385 L82,385 L82,680 L273,680 Q434,680 533,585.5 Q632,491 632,340 Q632,189 533,94.5 Q434,0 273,0 M188,93 L267,93 Q393,93 457.5,160 Q522,227 522,340 Q522,453 457.5,520 Q393,587 267,587 L188,587 L188,385 L355,385 L355,294 L188,294"/> 
            <glyph glyph-name="Ñ" unicode="&#xD1;" horiz-adv-x="625" d=" M257,751 L183,758 Q187,818 216,850.5 Q245,883 291,883 Q330,883 365,857 Q369,854 378.5,847.5 Q388,841 391,839.5 Q394,838 400,835 Q406,832 410.5,831 Q415,830 421,830 Q452,830 458,882 L532,875 Q529,814 500,782 Q471,750 424,750 Q384,750 349,776 Q345,779 337,784 Q329,789 326.5,791 Q324,793 318.5,796 Q313,799 310,800 Q307,801 302.5,802 Q298,803 294,803 Q263,803 257,751 M612,-7 L237,397 L173,473 Q180,417 180,375 L180,0 L82,0 L82,687 L96,687 L471,284 L534,208 Q527,268 527,306 L527,680 L625,680 L625,-7"/> 
            <glyph glyph-name="Ò" unicode="&#xD2;" horiz-adv-x="752" d=" M402,-9 Q254,-9 152.5,90 Q51,189 51,340 Q51,491 152.5,590 Q254,689 402,689 Q549,689 650.5,590 Q752,491 752,340 Q752,189 650.5,90 Q549,-9 402,-9 M296,86 Q508,86 576,158.5 Q644,231 644,340 Q644,449 576,521.5 Q508,594 402,594 Q296,594 227.5,521.5 Q159,449 159,340 Q159,231 296,86 M363,744 L265,934 L381,934 L441,744"/> 
            <glyph glyph-name="Ó" unicode="&#xD3;" horiz-adv-x="752" d=" M363,744 L423,934 L539,934 L441,744 M402,-9 Q254,-9 152.5,90 Q51,189 51,340 Q51,491 152.5,590 Q254,689 402,689 Q549,689 650.5,590 Q752,491 752,340 Q752,189 650.5,90 Q549,-9 402,-9 M296,86 Q508,86 576,158.5 Q644,231 644,340 Q644,449 576,521.5 Q508,594 402,594 Q296,594 227.5,521.5 Q159,449 159,340 Q159,231 296,86"/> 
            <glyph glyph-name="Ô" unicode="&#xD4;" horiz-adv-x="752" d=" M252,746 L395,951 L406,951 L549,746 L466,746 L401,830 L335,746 M402,-9 Q254,-9 152.5,90 Q51,189 51,340 Q51,491 152.5,590 Q254,689 402,689 Q549,689 650.5,590 Q752,491 752,340 Q752,189 650.5,90 Q549,-9 402,-9 M296,86 Q508,86 576,158.5 Q644,231 644,340 Q644,449 576,521.5 Q508,594 402,594 Q296,594 227.5,521.5 Q159,449 159,340 Q159,231 296,86"/> 
            <glyph glyph-name="Õ" unicode="&#xD5;" horiz-adv-x="752" d=" M301,751 L227,758 Q231,818 260,850.5 Q289,883 335,883 Q374,883 410,857 Q415,854 422,849 Q429,844 432,842 Q435,840 440,837 Q445,834 448.5,833 Q452,832 456.5,831 Q461,830 466,830 Q496,830 502,882 L577,875 Q573,814 544,782 Q515,750 468,750 Q429,750 393,776 Q389,779 381,784 Q373,789 370.5,791 Q368,793 362.5,796 Q357,799 354,800 Q351,801 346.5,802 Q342,803 338,803 Q307,803 301,751 M402,-9 Q254,-9 152.5,90 Q51,189 51,340 Q51,491 152.5,590 Q254,689 402,689 Q549,689 650.5,590 Q752,491 752,340 Q752,189 650.5,90 Q549,-9 402,-9 M296,86 Q508,86 576,158.5 Q644,231 644,340 Q644,449 576,521.5 Q508,594 402,594 Q296,594 227.5,521.5 Q159,449 159,340 Q159,231 296,86"/> 
            <glyph glyph-name="Ö" unicode="&#xD6;" horiz-adv-x="752" d=" M519,749 Q471,749 453,767 Q435,785 435,809 Q435,834 453,852 Q471,870 495,870 Q519,870 537.5,852 Q556,834 556,809 Q556,785 519,749 M331,749 Q283,749 264.5,767 Q246,785 246,809 Q246,834 264.5,852 Q283,870 307,870 Q331,870 349,852 Q367,834 367,809 Q367,784 331,749 M402,-9 Q254,-9 152.5,90 Q51,189 51,340 Q51,491 152.5,590 Q254,689 402,689 Q549,689 650.5,590 Q752,491 752,340 Q752,189 650.5,90 Q549,-9 402,-9 M296,86 Q508,86 576,158.5 Q644,231 644,340 Q644,449 576,521.5 Q508,594 402,594 Q296,594 227.5,521.5 Q159,449 159,340 Q159,231 296,86"/> 
            <glyph glyph-name="×" unicode="&#xD7;" horiz-adv-x="351" d=" M194,196 L100,101 L37,164 L132,258 L37,353 L100,415 L194,321 L289,415 L351,353 L257,258 L351,164 L289,101"/> 
            <glyph glyph-name="Ø" unicode="&#xD8;" horiz-adv-x="758" d=" M102,-10 L43,48 L122,125 Q50,218 50,340 Q50,490 151.5,589.5 Q253,689 401,689 Q526,689 621,613 L699,689 L758,631 L680,554 Q751,462 751,340 Q751,191 649.5,91 Q548,-9 401,-9 Q275,-9 181,66 M198,199 L550,545 Q489,595 401,595 Q295,595 226.5,522 Q158,449 158,340 Q158,259 198,199 M401,85 Q507,85 575.5,158 Q644,231 644,340 Q644,419 604,481 L251,135 Q313,85 401,85"/> 
            <glyph glyph-name="Ù" unicode="&#xD9;" horiz-adv-x="596" d=" M337,-9 Q221,-9 149.5,55 Q78,119 78,239 L78,680 L184,680 L184,245 Q184,86 337,86 Q491,86 491,245 L491,680 L596,680 L596,239 Q596,119 524,55 Q452,-9 337,-9 M298,744 L200,934 L316,934 L376,744"/> 
            <glyph glyph-name="Ú" unicode="&#xDA;" horiz-adv-x="596" d=" M298,744 L358,934 L474,934 L376,744 M337,-9 Q221,-9 149.5,55 Q78,119 78,239 L78,680 L184,680 L184,245 Q184,86 337,86 Q491,86 491,245 L491,680 L596,680 L596,239 Q596,119 524,55 Q452,-9 337,-9"/> 
            <glyph glyph-name="Û" unicode="&#xDB;" horiz-adv-x="596" d=" M187,746 L330,951 L341,951 L484,746 L401,746 L336,830 L270,746 M337,-9 Q221,-9 149.5,55 Q78,119 78,239 L78,680 L184,680 L184,245 Q184,86 337,86 Q491,86 491,245 L491,680 L596,680 L596,239 Q596,119 524,55 Q452,-9 337,-9"/> 
            <glyph glyph-name="Ü" unicode="&#xDC;" horiz-adv-x="596" d=" M454,749 Q406,749 388,767 Q370,785 370,809 Q370,834 388,852 Q406,870 430,870 Q454,870 472.5,852 Q491,834 491,809 Q491,785 454,749 M266,749 Q218,749 199.5,767 Q181,785 181,809 Q181,834 199.5,852 Q218,870 242,870 Q266,870 284,852 Q302,834 302,809 Q302,784 266,749 M337,-9 Q221,-9 149.5,55 Q78,119 78,239 L78,680 L184,680 L184,245 Q184,86 337,86 Q491,86 491,245 L491,680 L596,680 L596,239 Q596,119 524,55 Q452,-9 337,-9"/> 
            <glyph glyph-name="Ý" unicode="&#xDD;" horiz-adv-x="596" d=" M264,0 L264,249 L27,680 L146,680 L277,435 Q302,387 318,338 Q334,387 359,435 L487,680 L596,680 L370,256 L370,0 M279,744 L339,934 L455,934 L357,744"/> 
            <glyph glyph-name="Þ" unicode="&#xDE;" horiz-adv-x="548" d=" M82,0 L82,680 L188,680 L188,563 L301,563 Q412,563 480,507.5 Q548,452 548,344 Q548,237 480,180.5 Q412,124 301,124 L188,124 L188,0 M188,217 L297,217 Q440,217 440,344 Q440,470 297,470 L188,470"/> 
            <glyph glyph-name="ß" unicode="&#xDF;" horiz-adv-x="517" d=" M305,-5 Q253,-5 224,6 L239,89 Q265,81 289,81 Q350,81 381.5,115.5 Q413,150 413,212 Q413,281 370,316.5 Q327,352 250,350 L250,431 Q297,437 324.5,465.5 Q352,494 352,547 Q352,600 327.5,625.5 Q303,651 261,651 Q218,651 191.5,622 Q165,593 165,534 L165,0 L64,0 L64,532 Q64,630 119,682.5 Q174,735 261,735 Q347,735 398,685.5 Q449,636 449,551 Q449,447 361,405 Q434,387 475.5,337 Q517,287 517,209 Q517,113 461,54 Q405,-5 305,-5"/> 
            <glyph glyph-name="à" unicode="&#xE0;" horiz-adv-x="419" d=" M318,250 Q318,345 234,345 Q168,345 124,295 L66,354 Q129,429 242,429 Q322,429 370.5,383 Q419,337 419,248 L419,0 L318,0 L321,60 Q275,-9 189,-9 Q122,-9 80,24 Q38,57 38,124 Q38,187 83,218 Q128,249 203,250 M318,180 L210,180 Q137,180 137,127 Q137,72 217,72 Q262,72 290,92.5 Q318,113 318,147 M202,499 L104,689 L220,689 L280,499"/> 
            <glyph glyph-name="á" unicode="&#xE1;" horiz-adv-x="419" d=" M318,250 Q318,345 234,345 Q168,345 124,295 L66,354 Q129,429 242,429 Q322,429 370.5,383 Q419,337 419,248 L419,0 L318,0 L321,60 Q275,-9 189,-9 Q122,-9 80,24 Q38,57 38,124 Q38,187 83,218 Q128,249 203,250 M318,180 L210,180 Q137,180 137,127 Q137,72 217,72 Q262,72 290,92.5 Q318,113 318,147 M202,499 L262,689 L378,689 L280,499"/> 
            <glyph glyph-name="â" unicode="&#xE2;" horiz-adv-x="419" d=" M318,250 Q318,345 234,345 Q168,345 124,295 L66,354 Q129,429 242,429 Q322,429 370.5,383 Q419,337 419,248 L419,0 L318,0 L321,60 Q275,-9 189,-9 Q122,-9 80,24 Q38,57 38,124 Q38,187 83,218 Q128,249 203,250 M318,180 L210,180 Q137,180 137,127 Q137,72 217,72 Q262,72 290,92.5 Q318,113 318,147 M91,501 L234,706 L245,706 L388,501 L305,501 L240,585 L174,501"/> 
            <glyph glyph-name="ã" unicode="&#xE3;" horiz-adv-x="419" d=" M318,250 Q318,345 234,345 Q168,345 124,295 L66,354 Q129,429 242,429 Q322,429 370.5,383 Q419,337 419,248 L419,0 L318,0 L321,60 Q275,-9 189,-9 Q122,-9 80,24 Q38,57 38,124 Q38,187 83,218 Q128,249 203,250 M318,180 L210,180 Q137,180 137,127 Q137,72 217,72 Q262,72 290,92.5 Q318,113 318,147 M153,507 L82,514 Q85,574 112,606.5 Q139,639 180,639 Q213,639 246,613 Q249,610 256.5,604.5 Q264,599 266,597.5 Q268,596 273,593 Q278,590 280.5,589 Q283,588 287,587 Q291,586 295,586 Q323,586 327,638 L398,631 Q395,571 368.5,538.5 Q342,506 300,506 Q268,506 234,533 Q231,535 225,540 Q219,545 216.5,546.5 Q214,548 210,551 Q206,554 204,554.5 Q202,555 198.5,556.5 Q195,558 192,558.5 Q189,559 186,559 Q157,559 153,507"/> 
            <glyph glyph-name="ä" unicode="&#xE4;" horiz-adv-x="419" d=" M318,250 Q318,345 234,345 Q168,345 124,295 L66,354 Q129,429 242,429 Q322,429 370.5,383 Q419,337 419,248 L419,0 L318,0 L321,60 Q275,-9 189,-9 Q122,-9 80,24 Q38,57 38,124 Q38,187 83,218 Q128,249 203,250 M318,180 L210,180 Q137,180 137,127 Q137,72 217,72 Q262,72 290,92.5 Q318,113 318,147 M358,522 Q310,522 292,540 Q274,558 274,582 Q274,607 292,625 Q310,643 334,643 Q358,643 376.5,625 Q395,607 395,582 Q395,558 358,522 M170,522 Q122,522 103.5,540 Q85,558 85,582 Q85,607 103.5,625 Q122,643 146,643 Q170,643 188,625 Q206,607 206,582 Q206,557 170,522"/> 
            <glyph glyph-name="å" unicode="&#xE5;" horiz-adv-x="419" d=" M318,250 Q318,345 234,345 Q168,345 124,295 L66,354 Q129,429 242,429 Q322,429 370.5,383 Q419,337 419,248 L419,0 L318,0 L321,60 Q275,-9 189,-9 Q122,-9 80,24 Q38,57 38,124 Q38,187 83,218 Q128,249 203,250 M318,180 L210,180 Q137,180 137,127 Q137,72 217,72 Q262,72 290,92.5 Q318,113 318,147 M289,479 Q191,479 157,511 Q123,543 123,588 Q123,634 157,666 Q191,698 240,698 Q289,698 323,666 Q357,634 357,588 Q357,543 289,479 M219,538 Q261,538 274.5,551.5 Q288,565 288,588 Q288,612 274.5,625.5 Q261,639 240,639 Q219,639 205.5,625 Q192,611 192,588 Q192,565 219,538"/> 
            <glyph glyph-name="æ" unicode="&#xE6;" horiz-adv-x="759" d=" M318,250 Q318,345 234,345 Q168,345 124,295 L66,354 Q129,429 242,429 Q344,429 379,348 Q437,429 542,429 Q648,429 706,358.5 Q764,288 759,176 L420,176 Q429,130 463.5,103 Q498,76 553,76 Q626,76 673,121 L732,59 Q664,-9 554,-9 Q432,-9 374,77 Q353,36 308.5,13.5 Q264,-9 206,-9 Q129,-9 83.5,23 Q38,55 38,124 Q38,187 83,218.5 Q128,250 203,250 M420,246 L657,246 Q641,345 542,345 Q493,345 461,319 Q429,293 420,246 M318,180 L210,180 Q137,180 137,127 Q137,72 217,72 Q262,72 290,92.5 Q318,113 318,147"/> 
            <glyph glyph-name="ç" unicode="&#xE7;" horiz-adv-x="439" d=" M213,-3 Q137,14 90,72 Q43,130 43,210 Q43,304 107,366.5 Q171,429 267,429 Q373,429 437,349 L365,291 Q331,340 267,340 Q212,340 179.5,303.5 Q147,267 147,210 Q147,153 179.5,116.5 Q212,80 267,80 Q328,80 370,127 L439,67 Q374,-8 270,-9 L270,-46 Q307,-53 331.5,-78 Q356,-103 356,-143 Q356,-185 326,-210.5 Q296,-236 255,-236 Q178,-236 145,-176 L197,-145 Q214,-178 247,-178 Q265,-178 277,-167.5 Q289,-157 289,-138 Q289,-119 276,-107.5 Q263,-96 240,-96 L213,-96"/> 
            <glyph glyph-name="è" unicode="&#xE8;" horiz-adv-x="484" d=" M146,176 Q166,76 279,76 Q351,76 398,121 L457,59 Q389,-9 280,-9 Q173,-9 108,52.5 Q43,114 43,210 Q43,303 107.5,366 Q172,429 267,429 Q373,429 431,358.5 Q489,288 484,176 M146,246 L382,246 Q366,345 268,345 Q219,345 187,319 Q155,293 146,246 M225,499 L127,689 L243,689 L303,499"/> 
            <glyph glyph-name="é" unicode="&#xE9;" horiz-adv-x="484" d=" M225,499 L285,689 L401,689 L303,499 M146,176 Q166,76 279,76 Q351,76 398,121 L457,59 Q389,-9 280,-9 Q173,-9 108,52.5 Q43,114 43,210 Q43,303 107.5,366 Q172,429 267,429 Q373,429 431,358.5 Q489,288 484,176 M146,246 L382,246 Q366,345 268,345 Q219,345 187,319 Q155,293 146,246"/> 
            <glyph glyph-name="ê" unicode="&#xEA;" horiz-adv-x="484" d=" M114,501 L257,706 L268,706 L411,501 L328,501 L263,585 L197,501 M146,176 Q166,76 279,76 Q351,76 398,121 L457,59 Q389,-9 280,-9 Q173,-9 108,52.5 Q43,114 43,210 Q43,303 107.5,366 Q172,429 267,429 Q373,429 431,358.5 Q489,288 484,176 M146,246 L382,246 Q366,345 268,345 Q219,345 187,319 Q155,293 146,246"/> 
            <glyph glyph-name="ë" unicode="&#xEB;" horiz-adv-x="484" d=" M382,522 Q334,522 316,540 Q298,558 298,582 Q298,607 316,625 Q334,643 358,643 Q382,643 400.5,625 Q419,607 419,582 Q419,558 382,522 M194,522 Q146,522 127.5,540 Q109,558 109,582 Q109,607 127.5,625 Q146,643 170,643 Q194,643 212,625 Q230,607 230,582 Q230,557 194,522 M146,176 Q166,76 279,76 Q351,76 398,121 L457,59 Q389,-9 280,-9 Q173,-9 108,52.5 Q43,114 43,210 Q43,303 107.5,366 Q172,429 267,429 Q373,429 431,358.5 Q489,288 484,176 M146,246 L382,246 Q366,345 268,345 Q219,345 187,319 Q155,293 146,246"/> 
            <glyph glyph-name="ì" unicode="&#xEC;" horiz-adv-x="169" d=" M67,0 L67,420 L169,420 L169,0 M80,499 L-18,689 L98,689 L158,499"/> 
            <glyph glyph-name="í" unicode="&#xED;" horiz-adv-x="256" d=" M80,499 L140,689 L256,689 L158,499 M67,0 L67,420 L169,420 L169,0"/> 
            <glyph glyph-name="î" unicode="&#xEE;" horiz-adv-x="266" d=" M-31,501 L112,706 L123,706 L266,501 L183,501 L118,585 L52,501 M67,0 L67,420 L169,420 L169,0"/> 
            <glyph glyph-name="ï" unicode="&#xEF;" horiz-adv-x="264" d=" M67,0 L67,420 L169,420 L169,0 M228,522 Q180,522 161.5,540 Q143,558 143,582 Q143,607 161.5,625 Q180,643 204,643 Q228,643 246,625 Q264,607 264,582 Q264,557 228,522 M56,522 Q8,522 -10.5,540 Q-29,558 -29,582 Q-29,607 -10.5,625 Q8,643 32,643 Q56,643 74,625 Q92,607 92,582 Q92,558 56,522"/> 
            <glyph glyph-name="ð" unicode="&#xF0;" horiz-adv-x="496" d=" M272,552 L209,492 L161,540 L227,603 Q187,644 151,675 L205,739 Q252,703 291,666 L352,725 L401,677 L338,616 Q496,438 496,242 Q496,125 432.5,58 Q369,-9 270,-9 Q174,-9 108.5,54 Q43,117 43,210 Q43,303 106.5,366 Q170,429 255,429 Q325,429 367,384 Q342,463 272,552 M214,78 Q326,78 359,115.5 Q392,153 392,212 Q392,269 359,305 Q326,341 270,341 Q214,341 180.5,304.5 Q147,268 147,210 Q147,152 214,78"/> 
            <glyph glyph-name="ñ" unicode="&#xF1;" horiz-adv-x="462" d=" M64,0 L64,420 L165,420 L163,342 Q182,383 220,406 Q258,429 305,429 Q376,429 419,381 Q462,333 462,249 L462,0 L361,0 L361,241 Q361,336 274,336 Q224,336 194.5,307.5 Q165,279 165,228 L165,0 M171,507 L100,514 Q103,574 130,606.5 Q157,639 198,639 Q231,639 264,613 Q267,610 274.5,604.5 Q282,599 284,597.5 Q286,596 291,593 Q296,590 298.5,589 Q301,588 305,587 Q309,586 313,586 Q341,586 345,638 L416,631 Q413,571 386.5,538.5 Q360,506 318,506 Q286,506 252,533 Q249,535 243,540 Q237,545 234.5,546.5 Q232,548 228,551 Q224,554 222,554.5 Q220,555 216.5,556.5 Q213,558 210,558.5 Q207,559 204,559 Q175,559 171,507"/> 
            <glyph glyph-name="ò" unicode="&#xF2;" horiz-adv-x="496" d=" M366,-9 Q174,-9 108.5,54 Q43,117 43,210 Q43,303 108.5,366 Q174,429 270,429 Q366,429 431,366.5 Q496,304 496,210 Q496,116 366,-9 M214,78 Q326,78 359,115 Q392,152 392,210 Q392,268 359,304.5 Q326,341 270,341 Q214,341 180.5,304.5 Q147,268 147,210 Q147,152 214,78 M230,499 L132,689 L248,689 L308,499"/> 
            <glyph glyph-name="ó" unicode="&#xF3;" horiz-adv-x="496" d=" M230,499 L290,689 L406,689 L308,499 M366,-9 Q174,-9 108.5,54 Q43,117 43,210 Q43,303 108.5,366 Q174,429 270,429 Q366,429 431,366.5 Q496,304 496,210 Q496,116 366,-9 M214,78 Q326,78 359,115 Q392,152 392,210 Q392,268 359,304.5 Q326,341 270,341 Q214,341 180.5,304.5 Q147,268 147,210 Q147,152 214,78"/> 
            <glyph glyph-name="ô" unicode="&#xF4;" horiz-adv-x="496" d=" M119,501 L262,706 L273,706 L416,501 L333,501 L268,585 L202,501 M366,-9 Q174,-9 108.5,54 Q43,117 43,210 Q43,303 108.5,366 Q174,429 270,429 Q366,429 431,366.5 Q496,304 496,210 Q496,116 366,-9 M214,78 Q326,78 359,115 Q392,152 392,210 Q392,268 359,304.5 Q326,341 270,341 Q214,341 180.5,304.5 Q147,268 147,210 Q147,152 214,78"/> 
            <glyph glyph-name="õ" unicode="&#xF5;" horiz-adv-x="496" d=" M366,-9 Q174,-9 108.5,54 Q43,117 43,210 Q43,303 108.5,366 Q174,429 270,429 Q366,429 431,366.5 Q496,304 496,210 Q496,116 366,-9 M214,78 Q326,78 359,115 Q392,152 392,210 Q392,268 359,304.5 Q326,341 270,341 Q214,341 180.5,304.5 Q147,268 147,210 Q147,152 214,78 M182,507 L111,514 Q114,574 141,606.5 Q168,639 209,639 Q242,639 275,613 Q278,610 285.5,604.5 Q293,599 295,597.5 Q297,596 302,593 Q307,590 309.5,589 Q312,588 316,587 Q320,586 324,586 Q352,586 356,638 L427,631 Q424,571 397.5,538.5 Q371,506 329,506 Q297,506 263,533 Q260,535 254,540 Q248,545 245.5,546.5 Q243,548 239,551 Q235,554 233,554.5 Q231,555 227.5,556.5 Q224,558 221,558.5 Q218,559 215,559 Q186,559 182,507"/> 
            <glyph glyph-name="ö" unicode="&#xF6;" horiz-adv-x="496" d=" M387,522 Q339,522 321,540 Q303,558 303,582 Q303,607 321,625 Q339,643 363,643 Q387,643 405.5,625 Q424,607 424,582 Q424,558 387,522 M199,522 Q151,522 132.5,540 Q114,558 114,582 Q114,607 132.5,625 Q151,643 175,643 Q199,643 217,625 Q235,607 235,582 Q235,557 199,522 M366,-9 Q174,-9 108.5,54 Q43,117 43,210 Q43,303 108.5,366 Q174,429 270,429 Q366,429 431,366.5 Q496,304 496,210 Q496,116 366,-9 M214,78 Q326,78 359,115 Q392,152 392,210 Q392,268 359,304.5 Q326,341 270,341 Q214,341 180.5,304.5 Q147,268 147,210 Q147,152 214,78"/> 
            <glyph glyph-name="÷" unicode="&#xF7;" horiz-adv-x="352" d=" M352,214 L39,214 L39,303 L352,303 M223,351 Q169,351 149.5,370 Q130,389 130,417 Q130,445 149.5,464 Q169,483 196,483 Q223,483 242,464 Q261,445 261,417 Q261,389 223,351 M223,35 Q169,35 149.5,54 Q130,73 130,101 Q130,129 149.5,147.5 Q169,166 196,166 Q223,166 242,147.5 Q261,129 261,101 Q261,73 223,35"/> 
            <glyph glyph-name="ø" unicode="&#xF8;" horiz-adv-x="515" d=" M457,333 Q496,278 496,210 Q496,116 431,53.5 Q366,-9 270,-9 Q188,-9 126,40 L66,-13 L24,35 L82,86 Q43,142 43,210 Q43,303 108.5,366 Q174,429 270,429 Q351,429 413,380 L473,433 L515,384 M153,150 L346,321 Q315,344 270,344 Q213,344 177.5,306.5 Q142,269 142,210 Q142,178 153,150 M386,270 L192,99 Q225,74 270,74 Q327,74 362,112 Q397,150 397,210 Q397,242 386,270"/> 
            <glyph glyph-name="ù" unicode="&#xF9;" horiz-adv-x="456" d=" M216,-9 Q146,-9 103,38.5 Q60,86 60,170 L60,420 L161,420 L161,178 Q161,83 248,83 Q298,83 326.5,112 Q355,141 355,192 L355,420 L456,420 L456,0 L355,0 L357,77 Q337,36 300.5,13.5 Q264,-9 216,-9 M222,499 L124,689 L240,689 L300,499"/> 
            <glyph glyph-name="ú" unicode="&#xFA;" horiz-adv-x="456" d=" M221,499 L281,689 L397,689 L299,499 M216,-9 Q146,-9 103,38.5 Q60,86 60,170 L60,420 L161,420 L161,178 Q161,83 248,83 Q298,83 326.5,112 Q355,141 355,192 L355,420 L456,420 L456,0 L355,0 L357,77 Q337,36 300.5,13.5 Q264,-9 216,-9"/> 
            <glyph glyph-name="û" unicode="&#xFB;" horiz-adv-x="456" d=" M111,501 L254,706 L265,706 L408,501 L325,501 L260,585 L194,501 M216,-9 Q146,-9 103,38.5 Q60,86 60,170 L60,420 L161,420 L161,178 Q161,83 248,83 Q298,83 326.5,112 Q355,141 355,192 L355,420 L456,420 L456,0 L355,0 L357,77 Q337,36 300.5,13.5 Q264,-9 216,-9"/> 
            <glyph glyph-name="ü" unicode="&#xFC;" horiz-adv-x="456" d=" M378,522 Q330,522 312,540 Q294,558 294,582 Q294,607 312,625 Q330,643 354,643 Q378,643 396.5,625 Q415,607 415,582 Q415,558 378,522 M190,522 Q142,522 123.5,540 Q105,558 105,582 Q105,607 123.5,625 Q142,643 166,643 Q190,643 208,625 Q226,607 226,582 Q226,557 190,522 M216,-9 Q146,-9 103,38.5 Q60,86 60,170 L60,420 L161,420 L161,178 Q161,83 248,83 Q298,83 326.5,112 Q355,141 355,192 L355,420 L456,420 L456,0 L355,0 L357,77 Q337,36 300.5,13.5 Q264,-9 216,-9"/> 
            <glyph glyph-name="ý" unicode="&#xFD;" horiz-adv-x="459" d=" M80,-212 L189,38 L17,420 L129,420 L217,210 Q223,196 229,174 Q235,152 238,138 L241,123 Q250,178 264,210 L354,420 L459,420 L184,-212 M207,499 L267,689 L383,689 L285,499"/> 
            <glyph glyph-name="þ" unicode="&#xFE;" horiz-adv-x="510" d=" M67,-212 L67,722 L168,722 L168,347 Q218,429 316,429 Q398,429 454,367 Q510,305 510,211 Q510,117 453,54 Q396,-9 314,-9 Q263,-9 225.5,13 Q188,35 168,72 L168,-212 M287,80 Q341,80 373,116 Q405,152 405,211 Q405,268 373,303.5 Q341,339 287,339 Q232,339 198.5,303.5 Q165,268 165,211 Q165,152 198.5,116 Q232,80 287,80"/> 
            <glyph glyph-name="ÿ" unicode="&#xFF;" horiz-adv-x="459" d=" M80,-212 L189,38 L17,420 L129,420 L217,210 Q223,196 229,174 Q235,152 238,138 L241,123 Q250,178 264,210 L354,420 L459,420 L184,-212 M363,522 Q315,522 297,540 Q279,558 279,582 Q279,607 297,625 Q315,643 339,643 Q363,643 381.5,625 Q400,607 400,582 Q400,558 363,522 M175,522 Q127,522 108.5,540 Q90,558 90,582 Q90,607 108.5,625 Q127,643 151,643 Q175,643 193,625 Q211,607 211,582 Q211,557 175,522"/> 
            <glyph glyph-name="Ā" unicode="&#x100;" horiz-adv-x="630" d=" M29,0 L320,687 L332,687 L630,0 L520,0 L470,124 L181,124 L131,0 M217,212 L432,212 L358,397 Q330,465 324,497 L322,490 Q320,482 316.5,471.5 Q313,461 309,448.5 Q305,436 300,422 Q295,408 291,397 M202,759 L202,835 L448,835 L448,759"/> 
            <glyph glyph-name="ā" unicode="&#x101;" horiz-adv-x="419" d=" M318,250 Q318,345 234,345 Q168,345 124,295 L66,354 Q129,429 242,429 Q322,429 370.5,383 Q419,337 419,248 L419,0 L318,0 L321,60 Q275,-9 189,-9 Q122,-9 80,24 Q38,57 38,124 Q38,187 83,218 Q128,249 203,250 M318,180 L210,180 Q137,180 137,127 Q137,72 217,72 Q262,72 290,92.5 Q318,113 318,147 M117,528 L117,604 L363,604 L363,528"/> 
            <glyph glyph-name="Ă" unicode="&#x102;" horiz-adv-x="630" d=" M29,0 L320,687 L332,687 L630,0 L520,0 L470,124 L181,124 L131,0 M217,212 L432,212 L358,397 Q330,465 324,497 L322,490 Q320,482 316.5,471.5 Q313,461 309,448.5 Q305,436 300,422 Q295,408 291,397 M388,744 Q262,744 224,779 Q186,814 179,871 L258,884 Q270,820 325,820 Q380,820 392,884 L471,871 Q464,814 388,744"/> 
            <glyph glyph-name="ă" unicode="&#x103;" horiz-adv-x="419" d=" M318,250 Q318,345 234,345 Q168,345 124,295 L66,354 Q129,429 242,429 Q322,429 370.5,383 Q419,337 419,248 L419,0 L318,0 L321,60 Q275,-9 189,-9 Q122,-9 80,24 Q38,57 38,124 Q38,187 83,218 Q128,249 203,250 M318,180 L210,180 Q137,180 137,127 Q137,72 217,72 Q262,72 290,92.5 Q318,113 318,147 M303,500 Q177,500 139,535 Q101,570 94,627 L173,640 Q185,576 240,576 Q295,576 307,640 L386,627 Q379,570 303,500"/> 
            <glyph glyph-name="Ą" unicode="&#x104;" horiz-adv-x="687" d=" M581,-236 Q539,-236 510,-211.5 Q481,-187 481,-141 Q481,-101 522,-44 L554,0 L520,0 L470,124 L181,124 L131,0 L29,0 L320,687 L332,687 L626,10 L582,-63 Q569,-85 564.5,-93.5 Q560,-102 556,-114 Q552,-126 552,-139 Q552,-156 562,-166 Q572,-176 587,-176 Q615,-176 634,-145 L687,-176 Q654,-236 581,-236 M217,212 L433,212 L358,396 Q351,414 342.5,439 Q334,464 329,480 L324,497 Q324,496 319.5,480 Q315,464 307,439 Q299,414 291,396"/> 
            <glyph glyph-name="ą" unicode="&#x105;" horiz-adv-x="472" d=" M419,23 L367,-63 Q354,-85 349.5,-93.5 Q345,-102 341,-114 Q337,-126 337,-139 Q337,-156 346.5,-166 Q356,-176 372,-176 Q400,-176 419,-145 L472,-176 Q440,-236 366,-236 Q324,-236 295.5,-211.5 Q267,-187 267,-141 Q267,-95 307,-44 L341,0 L318,0 L321,60 Q275,-9 189,-9 Q122,-9 80,24 Q38,57 38,124 Q38,187 83,218 Q128,249 203,250 L318,250 Q318,345 234,345 Q168,345 124,295 L66,354 Q129,429 242,429 Q322,429 370.5,383 Q419,337 419,248 M318,180 L210,180 Q137,180 137,127 Q137,72 217,72 Q262,72 290,92.5 Q318,113 318,147"/> 
            <glyph glyph-name="Ć" unicode="&#x106;" horiz-adv-x="682" d=" M347,744 L407,934 L523,934 L425,744 M400,-9 Q253,-9 152,90 Q51,189 51,340 Q51,490 152,589 Q253,688 400,688 Q582,688 672,553 L591,495 Q528,593 400,593 Q295,593 227,521 Q159,449 159,340 Q159,231 227,158.5 Q295,86 400,86 Q529,86 601,193 L682,136 Q587,-9 400,-9"/> 
            <glyph glyph-name="ć" unicode="&#x107;" horiz-adv-x="439" d=" M216,499 L276,689 L392,689 L294,499 M267,-9 Q171,-9 107,53.5 Q43,116 43,210 Q43,304 107,366.5 Q171,429 267,429 Q373,429 437,349 L365,291 Q331,340 267,340 Q212,340 179.5,303.5 Q147,267 147,210 Q147,153 179.5,116.5 Q212,80 267,80 Q328,80 370,127 L439,67 Q373,-9 267,-9"/> 
            <glyph glyph-name="Ĉ" unicode="&#x108;" horiz-adv-x="682" d=" M236,746 L379,951 L390,951 L533,746 L450,746 L385,830 L319,746 M400,-9 Q253,-9 152,90 Q51,189 51,340 Q51,490 152,589 Q253,688 400,688 Q582,688 672,553 L591,495 Q528,593 400,593 Q295,593 227,521 Q159,449 159,340 Q159,231 227,158.5 Q295,86 400,86 Q529,86 601,193 L682,136 Q587,-9 400,-9"/> 
            <glyph glyph-name="ĉ" unicode="&#x109;" horiz-adv-x="439" d=" M105,501 L248,706 L259,706 L402,501 L319,501 L254,585 L188,501 M267,-9 Q171,-9 107,53.5 Q43,116 43,210 Q43,304 107,366.5 Q171,429 267,429 Q373,429 437,349 L365,291 Q331,340 267,340 Q212,340 179.5,303.5 Q147,267 147,210 Q147,153 179.5,116.5 Q212,80 267,80 Q328,80 370,127 L439,67 Q373,-9 267,-9"/> 
            <glyph glyph-name="Ċ" unicode="&#x10A;" horiz-adv-x="682" d=" M400,-9 Q253,-9 152,90 Q51,189 51,340 Q51,490 152,589 Q253,688 400,688 Q582,688 672,553 L591,495 Q528,593 400,593 Q295,593 227,521 Q159,449 159,340 Q159,231 227,158.5 Q295,86 400,86 Q529,86 601,193 L682,136 Q587,-9 400,-9 M414,743 Q358,743 338.5,762 Q319,781 319,810 Q319,838 339,857 Q359,876 386,876 Q413,876 433,857 Q453,838 453,810 Q453,781 414,743"/> 
            <glyph glyph-name="ċ" unicode="&#x10B;" horiz-adv-x="439" d=" M267,-9 Q171,-9 107,53.5 Q43,116 43,210 Q43,304 107,366.5 Q171,429 267,429 Q373,429 437,349 L365,291 Q331,340 267,340 Q212,340 179.5,303.5 Q147,267 147,210 Q147,153 179.5,116.5 Q212,80 267,80 Q328,80 370,127 L439,67 Q373,-9 267,-9 M283,516 Q227,516 207.5,535 Q188,554 188,583 Q188,611 208,630 Q228,649 255,649 Q282,649 302,630 Q322,611 322,583 Q322,554 283,516"/> 
            <glyph glyph-name="Č" unicode="&#x10C;" horiz-adv-x="682" d=" M379,734 L236,938 L319,938 L384,854 L450,938 L533,938 L390,734 M400,-9 Q253,-9 152,90 Q51,189 51,340 Q51,490 152,589 Q253,688 400,688 Q582,688 672,553 L591,495 Q528,593 400,593 Q295,593 227,521 Q159,449 159,340 Q159,231 227,158.5 Q295,86 400,86 Q529,86 601,193 L682,136 Q587,-9 400,-9"/> 
            <glyph glyph-name="č" unicode="&#x10D;" horiz-adv-x="439" d=" M248,488 L105,692 L188,692 L253,608 L319,692 L402,692 L259,488 M267,-9 Q171,-9 107,53.5 Q43,116 43,210 Q43,304 107,366.5 Q171,429 267,429 Q373,429 437,349 L365,291 Q331,340 267,340 Q212,340 179.5,303.5 Q147,267 147,210 Q147,153 179.5,116.5 Q212,80 267,80 Q328,80 370,127 L439,67 Q373,-9 267,-9"/> 
            <glyph glyph-name="Ď" unicode="&#x10E;" horiz-adv-x="632" d=" M294,734 L151,938 L234,938 L299,854 L365,938 L448,938 L305,734 M82,0 L82,680 L269,680 Q432,680 532,586.5 Q632,493 632,340 Q632,187 532.5,93.5 Q433,0 269,0 M188,93 L262,93 Q390,93 456,160 Q522,227 522,340 Q522,453 456,520 Q390,587 262,587 L188,587"/> 
            <glyph glyph-name="ď" unicode="&#x10F;" horiz-adv-x="679" d=" M549,452 L585,561 Q569,567 558,583.5 Q547,600 547,621 Q547,649 566.5,668 Q586,687 612,687 Q639,687 659,668 Q679,649 679,622 Q679,596 658,559 L600,452 M241,-9 Q158,-9 101,54 Q44,117 44,211 Q44,305 101,367 Q158,429 239,429 Q337,429 385,347 L385,722 L487,722 L487,0 L385,0 L388,76 Q345,-9 241,-9 M212,80 Q322,80 355.5,116 Q389,152 389,211 Q389,268 355.5,303.5 Q322,339 267,339 Q213,339 180.5,303.5 Q148,268 148,211 Q148,152 212,80"/> 
            <glyph glyph-name="Đ" unicode="&#x110;" horiz-adv-x="632" d=" M82,0 L82,294 L13,294 L13,385 L82,385 L82,680 L273,680 Q434,680 533,585.5 Q632,491 632,340 Q632,189 533,94.5 Q434,0 273,0 M188,93 L267,93 Q393,93 457.5,160 Q522,227 522,340 Q522,453 457.5,520 Q393,587 267,587 L188,587 L188,385 L355,385 L355,294 L188,294"/> 
            <glyph glyph-name="đ" unicode="&#x111;" horiz-adv-x="557" d=" M385,508 L252,508 L252,593 L385,593 L385,722 L487,722 L487,593 L557,593 L557,508 L487,508 L487,0 L385,0 L388,76 Q368,37 329.5,14 Q291,-9 240,-9 Q158,-9 101,54 Q44,117 44,211 Q44,305 100.5,367 Q157,429 238,429 Q337,429 385,347 M212,80 Q322,80 355.5,116 Q389,152 389,211 Q389,268 355.5,303.5 Q322,339 267,339 Q213,339 180.5,303.5 Q148,268 148,211 Q148,152 212,80"/> 
            <glyph glyph-name="Ē" unicode="&#x112;" horiz-adv-x="528" d=" M82,0 L82,680 L514,680 L514,587 L188,587 L188,387 L477,387 L477,296 L188,296 L188,93 L528,93 L528,0 M182,759 L182,835 L428,835 L428,759"/> 
            <glyph glyph-name="ē" unicode="&#x113;" horiz-adv-x="484" d=" M146,176 Q166,76 279,76 Q351,76 398,121 L457,59 Q389,-9 280,-9 Q173,-9 108,52.5 Q43,114 43,210 Q43,303 107.5,366 Q172,429 267,429 Q373,429 431,358.5 Q489,288 484,176 M146,246 L382,246 Q366,345 268,345 Q219,345 187,319 Q155,293 146,246 M141,528 L141,604 L387,604 L387,528"/> 
            <glyph glyph-name="Ė" unicode="&#x116;" horiz-adv-x="528" d=" M82,0 L82,680 L514,680 L514,587 L188,587 L188,387 L477,387 L477,296 L188,296 L188,93 L528,93 L528,0 M333,743 Q277,743 257.5,762 Q238,781 238,810 Q238,838 258,857 Q278,876 305,876 Q332,876 352,857 Q372,838 372,810 Q372,781 333,743"/> 
            <glyph glyph-name="ė" unicode="&#x117;" horiz-adv-x="484" d=" M146,176 Q166,76 279,76 Q351,76 398,121 L457,59 Q389,-9 280,-9 Q173,-9 108,52.5 Q43,114 43,210 Q43,303 107.5,366 Q172,429 267,429 Q373,429 431,358.5 Q489,288 484,176 M146,246 L382,246 Q366,345 268,345 Q219,345 187,319 Q155,293 146,246 M292,516 Q236,516 216.5,535 Q197,554 197,583 Q197,611 217,630 Q237,649 264,649 Q291,649 311,630 Q331,611 331,583 Q331,554 292,516"/> 
            <glyph glyph-name="Ę" unicode="&#x118;" horiz-adv-x="531" d=" M424,-236 Q382,-236 353.5,-211.5 Q325,-187 325,-141 Q325,-95 365,-44 L399,0 L82,0 L82,680 L514,680 L514,587 L188,587 L188,387 L477,387 L477,296 L188,296 L188,93 L528,93 L528,0 L463,0 L425,-63 Q412,-85 407.5,-93.5 Q403,-102 399,-114 Q395,-126 395,-139 Q395,-156 404.5,-166 Q414,-176 430,-176 Q458,-176 477,-145 L531,-176 Q498,-236 424,-236"/> 
            <glyph glyph-name="ę" unicode="&#x119;" horiz-adv-x="484" d=" M346,-236 Q304,-236 275,-211.5 Q246,-187 246,-141 Q246,-95 290,-39 L316,-5 Q294,-9 276,-9 Q173,-9 108,53 Q43,115 43,211 Q43,304 107.5,366.5 Q172,429 267,429 Q373,429 431.5,358 Q490,287 484,176 L146,176 Q154,130 188.5,103 Q223,76 279,76 Q351,76 398,121 L457,59 Q449,51 430,33.5 Q411,16 400.5,5.5 Q390,-5 374.5,-23.5 Q359,-42 346,-63 Q328,-92 322,-106 Q316,-120 316,-139 Q316,-156 326,-166 Q336,-176 351,-176 Q379,-176 398,-145 L452,-176 Q419,-236 346,-236 M146,246 L382,246 Q376,289 347,317 Q318,345 268,345 Q218,345 186,318.5 Q154,292 146,246"/> 
            <glyph glyph-name="Ě" unicode="&#x11A;" horiz-adv-x="528" d=" M298,734 L155,938 L238,938 L303,854 L369,938 L452,938 L309,734 M82,0 L82,680 L514,680 L514,587 L188,587 L188,387 L477,387 L477,296 L188,296 L188,93 L528,93 L528,0"/> 
            <glyph glyph-name="ě" unicode="&#x11B;" horiz-adv-x="484" d=" M257,488 L114,692 L197,692 L262,608 L328,692 L411,692 L268,488 M146,176 Q166,76 279,76 Q351,76 398,121 L457,59 Q389,-9 280,-9 Q173,-9 108,52.5 Q43,114 43,210 Q43,303 107.5,366 Q172,429 267,429 Q373,429 431,358.5 Q489,288 484,176 M146,246 L382,246 Q366,345 268,345 Q219,345 187,319 Q155,293 146,246"/> 
            <glyph glyph-name="Ĝ" unicode="&#x11C;" horiz-adv-x="678" d=" M231,746 L374,951 L385,951 L528,746 L445,746 L380,830 L314,746 M414,-9 Q255,-9 153,89 Q51,187 51,340 Q51,492 149.5,590 Q248,688 400,688 Q560,688 641,597 L570,526 Q506,593 400,593 Q294,593 226.5,521 Q159,449 159,340 Q159,230 229,158 Q299,86 414,86 Q517,86 581,130 L581,257 L398,257 L398,349 L678,349 L678,78 Q639,43 570,17 Q501,-9 414,-9"/> 
            <glyph glyph-name="ĝ" unicode="&#x11D;" horiz-adv-x="487" d=" M124,501 L267,706 L278,706 L421,501 L338,501 L273,585 L207,501 M269,-222 Q192,-222 136,-192 Q80,-162 50,-112 L123,-58 Q177,-137 264,-137 Q386,-137 386,-1 L386,72 Q343,-9 241,-9 Q158,-9 101,54 Q44,117 44,211 Q44,305 101,367 Q158,429 239,429 Q343,429 389,342 L386,420 L487,420 L487,-6 Q487,-116 427.5,-169 Q368,-222 269,-222 M212,80 Q322,80 355.5,116 Q389,152 389,211 Q389,268 355.5,303.5 Q322,339 267,339 Q213,339 180.5,303.5 Q148,268 148,211 Q148,152 212,80"/> 
            <glyph glyph-name="Ğ" unicode="&#x11E;" horiz-adv-x="678" d=" M414,-9 Q255,-9 153,89 Q51,187 51,340 Q51,492 149.5,590 Q248,688 400,688 Q560,688 641,597 L570,526 Q506,593 400,593 Q294,593 226.5,521 Q159,449 159,340 Q159,230 229,158 Q299,86 414,86 Q517,86 581,130 L581,257 L398,257 L398,349 L678,349 L678,78 Q639,43 570,17 Q501,-9 414,-9 M443,744 Q317,744 279,779 Q241,814 234,871 L313,884 Q325,820 380,820 Q435,820 447,884 L526,871 Q519,814 443,744"/> 
            <glyph glyph-name="ğ" unicode="&#x11F;" horiz-adv-x="487" d=" M269,-222 Q192,-222 136,-192 Q80,-162 50,-112 L123,-58 Q177,-137 264,-137 Q386,-137 386,-1 L386,72 Q343,-9 241,-9 Q158,-9 101,54 Q44,117 44,211 Q44,305 101,367 Q158,429 239,429 Q343,429 389,342 L386,420 L487,420 L487,-6 Q487,-116 427.5,-169 Q368,-222 269,-222 M212,80 Q322,80 355.5,116 Q389,152 389,211 Q389,268 355.5,303.5 Q322,339 267,339 Q213,339 180.5,303.5 Q148,268 148,211 Q148,152 212,80 M336,500 Q210,500 172,535 Q134,570 127,627 L206,640 Q218,576 273,576 Q328,576 340,640 L419,627 Q412,570 336,500"/> 
            <glyph glyph-name="Ġ" unicode="&#x120;" horiz-adv-x="678" d=" M414,-9 Q255,-9 153,89 Q51,187 51,340 Q51,492 149.5,590 Q248,688 400,688 Q560,688 641,597 L570,526 Q506,593 400,593 Q294,593 226.5,521 Q159,449 159,340 Q159,230 229,158 Q299,86 414,86 Q517,86 581,130 L581,257 L398,257 L398,349 L678,349 L678,78 Q639,43 570,17 Q501,-9 414,-9 M409,743 Q353,743 333.5,762 Q314,781 314,810 Q314,838 334,857 Q354,876 381,876 Q408,876 428,857 Q448,838 448,810 Q448,781 409,743"/> 
            <glyph glyph-name="ġ" unicode="&#x121;" horiz-adv-x="487" d=" M269,-222 Q192,-222 136,-192 Q80,-162 50,-112 L123,-58 Q177,-137 264,-137 Q386,-137 386,-1 L386,72 Q343,-9 241,-9 Q158,-9 101,54 Q44,117 44,211 Q44,305 101,367 Q158,429 239,429 Q343,429 389,342 L386,420 L487,420 L487,-6 Q487,-116 427.5,-169 Q368,-222 269,-222 M212,80 Q322,80 355.5,116 Q389,152 389,211 Q389,268 355.5,303.5 Q322,339 267,339 Q213,339 180.5,303.5 Q148,268 148,211 Q148,152 212,80 M302,516 Q246,516 226.5,535 Q207,554 207,583 Q207,611 227,630 Q247,649 274,649 Q301,649 321,630 Q341,611 341,583 Q341,554 302,516"/> 
            <glyph glyph-name="Ģ" unicode="&#x122;" horiz-adv-x="678" d=" M322,-269 L353,-171 Q338,-165 327.5,-149 Q317,-133 317,-114 Q317,-87 336,-68.5 Q355,-50 380,-50 Q406,-50 425,-68 Q444,-86 444,-113 Q444,-140 426,-173 L373,-269 M414,-9 Q255,-9 153,89 Q51,187 51,340 Q51,492 149.5,590 Q248,688 400,688 Q560,688 641,597 L570,526 Q506,593 400,593 Q294,593 226.5,521 Q159,449 159,340 Q159,230 229,158 Q299,86 414,86 Q517,86 581,130 L581,257 L398,257 L398,349 L678,349 L678,78 Q639,43 570,17 Q501,-9 414,-9"/> 
            <glyph glyph-name="ģ" unicode="&#x123;" horiz-adv-x="487" d=" M332,730 L301,632 Q316,626 326.5,610 Q337,594 337,575 Q337,548 318,529.5 Q299,511 274,511 Q248,511 229,529 Q210,547 210,574 Q210,601 228,634 L281,730 M269,-222 Q192,-222 136,-192 Q80,-162 50,-112 L123,-58 Q177,-137 264,-137 Q386,-137 386,-1 L386,72 Q343,-9 241,-9 Q158,-9 101,54 Q44,117 44,211 Q44,305 101,367 Q158,429 239,429 Q343,429 389,342 L386,420 L487,420 L487,-6 Q487,-116 427.5,-169 Q368,-222 269,-222 M212,80 Q322,80 355.5,116 Q389,152 389,211 Q389,268 355.5,303.5 Q322,339 267,339 Q213,339 180.5,303.5 Q148,268 148,211 Q148,152 212,80"/> 
            <glyph glyph-name="Ĥ" unicode="&#x124;" horiz-adv-x="621" d=" M201,746 L344,951 L355,951 L498,746 L415,746 L350,830 L284,746 M82,0 L82,680 L188,680 L188,377 L515,377 L515,680 L621,680 L621,0 L515,0 L515,283 L188,283 L188,0"/> 
            <glyph glyph-name="ĥ" unicode="&#x125;" horiz-adv-x="462" d=" M110,767 L253,972 L264,972 L407,767 L324,767 L259,851 L193,767 M64,0 L64,722 L165,722 L165,346 Q208,429 305,429 Q376,429 419,381 Q462,333 462,249 L462,0 L361,0 L361,241 Q361,336 274,336 Q224,336 194.5,307.5 Q165,279 165,228 L165,0"/> 
            <glyph glyph-name="Ħ" unicode="&#x126;" horiz-adv-x="696" d=" M7,464 L7,538 L82,538 L82,680 L188,680 L188,538 L515,538 L515,680 L621,680 L621,538 L696,538 L696,464 L621,464 L621,0 L515,0 L515,283 L188,283 L188,0 L82,0 L82,464 M188,377 L515,377 L515,464 L188,464"/> 
            <glyph glyph-name="ħ" unicode="&#x127;" horiz-adv-x="463" d=" M-7,509 L-7,593 L64,593 L64,722 L165,722 L165,593 L299,593 L299,509 L165,509 L165,346 Q208,429 305,429 Q376,429 419.5,381 Q463,333 463,249 L463,0 L361,0 L361,241 Q361,336 274,336 Q224,336 194.5,307.5 Q165,279 165,228 L165,0 L64,0 L64,509"/> 
            <glyph glyph-name="Ī" unicode="&#x12A;" horiz-adv-x="258" d=" M86,0 L86,680 L191,680 L191,0 M18,759 L18,835 L258,835 L258,759"/> 
            <glyph glyph-name="ī" unicode="&#x12B;" horiz-adv-x="217" d=" M67,0 L67,420 L169,420 L169,0 M18,528 L18,604 L217,604 L217,528"/> 
            <glyph glyph-name="Į" unicode="&#x12E;" horiz-adv-x="243" d=" M112,0 L86,0 L86,680 L191,680 L191,25 L138,-63 Q125,-85 120.5,-93.5 Q116,-102 112,-114 Q108,-126 108,-139 Q108,-156 118,-166 Q128,-176 143,-176 Q171,-176 190,-145 L243,-176 Q211,-236 137,-236 Q95,-236 66.5,-211.5 Q38,-187 38,-141 Q38,-95 78,-44"/> 
            <glyph glyph-name="į" unicode="&#x12F;" horiz-adv-x="224" d=" M146,516 Q90,516 70.5,535 Q51,554 51,583 Q51,611 71,630 Q91,649 118,649 Q145,649 165,630 Q185,611 185,583 Q185,554 146,516 M67,0 L67,420 L169,420 L169,20 L119,-63 Q106,-85 101.5,-93.5 Q97,-102 93,-114 Q89,-126 89,-139 Q89,-156 98.5,-166 Q108,-176 124,-176 Q152,-176 171,-145 L224,-176 Q192,-236 118,-236 Q76,-236 47.5,-211.5 Q19,-187 19,-141 Q19,-95 59,-44 L93,0"/> 
            <glyph glyph-name="İ" unicode="&#x130;" horiz-adv-x="206" d=" M86,0 L86,680 L191,680 L191,0 M167,743 Q111,743 91.5,762 Q72,781 72,810 Q72,838 92,857 Q112,876 139,876 Q166,876 186,857 Q206,838 206,810 Q206,781 167,743"/> 
            <glyph glyph-name="ı" unicode="&#x131;" horiz-adv-x="169" d=" M67,0 L67,420 L169,420 L169,0"/> 
            <glyph glyph-name="Ĵ" unicode="&#x134;" horiz-adv-x="504" d=" M207,746 L350,951 L361,951 L504,746 L421,746 L356,830 L290,746 M216,-9 Q81,-9 23,106 L109,159 Q150,86 211,86 Q305,86 305,192 L305,680 L411,680 L411,190 Q411,92 358,41.5 Q305,-9 216,-9"/> 
            <glyph glyph-name="ĵ" unicode="&#x135;" horiz-adv-x="265" d=" M38,-222 Q-27,-222 -65,-176 L-13,-116 Q8,-135 28,-135 Q67,-135 67,-86 L67,420 L169,420 L169,-83 Q169,-150 134.5,-186 Q100,-222 38,-222 M-32,501 L111,706 L122,706 L265,501 L182,501 L117,585 L51,501"/> 
            <glyph glyph-name="Ķ" unicode="&#x136;" horiz-adv-x="601" d=" M262,-269 L293,-171 Q278,-165 267.5,-149 Q257,-133 257,-114 Q257,-87 276,-68.5 Q295,-50 320,-50 Q346,-50 365,-68 Q384,-86 384,-113 Q384,-140 366,-173 L313,-269 M82,0 L82,680 L188,680 L188,414 Q188,385 180,313 Q214,378 234,404 L456,680 L575,680 L336,379 L601,0 L474,0 L265,300 L188,207 L188,0"/> 
            <glyph glyph-name="ķ" unicode="&#x137;" horiz-adv-x="464" d=" M181,-269 L212,-171 Q197,-165 186.5,-149 Q176,-133 176,-114 Q176,-87 195,-68.5 Q214,-50 239,-50 Q265,-50 284,-68 Q303,-86 303,-113 Q303,-140 285,-173 L232,-269 M165,124 L165,0 L64,0 L64,722 L165,722 L165,305 Q165,286 160,231 L328,420 L443,420 L288,245 L464,0 L345,0 L218,179"/> 
            <glyph glyph-name="Ĺ" unicode="&#x139;" horiz-adv-x="502" d=" M95,744 L155,934 L271,934 L173,744 M82,0 L82,680 L188,680 L188,93 L502,93 L502,0"/> 
            <glyph glyph-name="ĺ" unicode="&#x13A;" horiz-adv-x="256" d=" M80,765 L140,955 L256,955 L158,765 M68,0 L68,722 L169,722 L169,0"/> 
            <glyph glyph-name="Ļ" unicode="&#x13B;" horiz-adv-x="502" d=" M227,-269 L258,-171 Q243,-165 232.5,-149 Q222,-133 222,-114 Q222,-87 241,-68.5 Q260,-50 285,-50 Q311,-50 330,-68 Q349,-86 349,-113 Q349,-140 331,-173 L278,-269 M82,0 L82,680 L188,680 L188,93 L502,93 L502,0"/> 
            <glyph glyph-name="ļ" unicode="&#x13C;" horiz-adv-x="183" d=" M61,-269 L92,-171 Q77,-165 66.5,-149 Q56,-133 56,-114 Q56,-87 75,-68.5 Q94,-50 119,-50 Q145,-50 164,-68 Q183,-86 183,-113 Q183,-140 165,-173 L112,-269 M68,0 L68,722 L169,722 L169,0"/> 
            <glyph glyph-name="Ľ" unicode="&#x13D;" horiz-adv-x="502" d=" M316,452 L352,561 Q336,567 325,583.5 Q314,600 314,621 Q314,649 333.5,668 Q353,687 379,687 Q406,687 426,668 Q446,649 446,622 Q446,596 425,559 L367,452 M82,0 L82,680 L188,680 L188,93 L502,93 L502,0"/> 
            <glyph glyph-name="ľ" unicode="&#x13E;" horiz-adv-x="363" d=" M233,452 L269,561 Q253,567 242,583.5 Q231,600 231,621 Q231,649 250.5,668 Q270,687 296,687 Q323,687 343,668 Q363,649 363,622 Q363,596 342,559 L284,452 M68,0 L68,722 L169,722 L169,0"/> 
            <glyph glyph-name="Ł" unicode="&#x141;" horiz-adv-x="509" d=" M89,0 L89,235 L14,208 L14,301 L89,328 L89,680 L194,680 L194,366 L384,436 L384,343 L194,273 L194,93 L509,93 L509,0"/> 
            <glyph glyph-name="ł" unicode="&#x142;" horiz-adv-x="270" d=" M88,0 L88,239 L11,194 L11,292 L88,337 L88,722 L189,722 L189,395 L270,442 L270,343 L189,296 L189,0"/> 
            <glyph glyph-name="Ń" unicode="&#x143;" horiz-adv-x="625" d=" M314,744 L374,934 L490,934 L392,744 M612,-7 L237,397 L173,473 Q180,417 180,375 L180,0 L82,0 L82,687 L96,687 L471,284 L534,208 Q527,268 527,306 L527,680 L625,680 L625,-7"/> 
            <glyph glyph-name="ń" unicode="&#x144;" horiz-adv-x="462" d=" M220,499 L280,689 L396,689 L298,499 M64,0 L64,420 L165,420 L163,342 Q182,383 220,406 Q258,429 305,429 Q376,429 419,381 Q462,333 462,249 L462,0 L361,0 L361,241 Q361,336 274,336 Q224,336 194.5,307.5 Q165,279 165,228 L165,0"/> 
            <glyph glyph-name="Ņ" unicode="&#x145;" horiz-adv-x="625" d=" M308,-269 L339,-171 Q324,-165 313.5,-149 Q303,-133 303,-114 Q303,-87 322,-68.5 Q341,-50 366,-50 Q392,-50 411,-68 Q430,-86 430,-113 Q430,-140 412,-173 L359,-269 M612,-7 L237,397 L173,473 Q180,417 180,375 L180,0 L82,0 L82,687 L96,687 L471,284 L534,208 Q527,268 527,306 L527,680 L625,680 L625,-7"/> 
            <glyph glyph-name="ņ" unicode="&#x146;" horiz-adv-x="462" d=" M201,-269 L232,-171 Q217,-165 206.5,-149 Q196,-133 196,-114 Q196,-87 215,-68.5 Q234,-50 259,-50 Q285,-50 304,-68 Q323,-86 323,-113 Q323,-140 305,-173 L252,-269 M64,0 L64,420 L165,420 L163,342 Q182,383 220,406 Q258,429 305,429 Q376,429 419,381 Q462,333 462,249 L462,0 L361,0 L361,241 Q361,336 274,336 Q224,336 194.5,307.5 Q165,279 165,228 L165,0"/> 
            <glyph glyph-name="Ň" unicode="&#x147;" horiz-adv-x="625" d=" M346,734 L203,938 L286,938 L351,854 L417,938 L500,938 L357,734 M612,-7 L237,397 L173,473 Q180,417 180,375 L180,0 L82,0 L82,687 L96,687 L471,284 L534,208 Q527,268 527,306 L527,680 L625,680 L625,-7"/> 
            <glyph glyph-name="ň" unicode="&#x148;" horiz-adv-x="462" d=" M252,488 L109,692 L192,692 L257,608 L323,692 L406,692 L263,488 M64,0 L64,420 L165,420 L163,342 Q182,383 220,406 Q258,429 305,429 Q376,429 419,381 Q462,333 462,249 L462,0 L361,0 L361,241 Q361,336 274,336 Q224,336 194.5,307.5 Q165,279 165,228 L165,0"/> 
            <glyph glyph-name="Ō" unicode="&#x14C;" horiz-adv-x="752" d=" M278,759 L278,835 L524,835 L524,759 M402,-9 Q254,-9 152.5,90 Q51,189 51,340 Q51,491 152.5,590 Q254,689 402,689 Q549,689 650.5,590 Q752,491 752,340 Q752,189 650.5,90 Q549,-9 402,-9 M296,86 Q508,86 576,158.5 Q644,231 644,340 Q644,449 576,521.5 Q508,594 402,594 Q296,594 227.5,521.5 Q159,449 159,340 Q159,231 296,86"/> 
            <glyph glyph-name="ō" unicode="&#x14D;" horiz-adv-x="496" d=" M146,528 L146,604 L392,604 L392,528 M366,-9 Q174,-9 108.5,54 Q43,117 43,210 Q43,303 108.5,366 Q174,429 270,429 Q366,429 431,366.5 Q496,304 496,210 Q496,116 366,-9 M214,78 Q326,78 359,115 Q392,152 392,210 Q392,268 359,304.5 Q326,341 270,341 Q214,341 180.5,304.5 Q147,268 147,210 Q147,152 214,78"/> 
            <glyph glyph-name="Ő" unicode="&#x150;" horiz-adv-x="752" d=" M443,760 L502,951 L609,951 L520,760 M281,760 L341,951 L448,951 L359,760 M402,-9 Q254,-9 152.5,90 Q51,189 51,340 Q51,491 152.5,590 Q254,689 402,689 Q549,689 650.5,590 Q752,491 752,340 Q752,189 650.5,90 Q549,-9 402,-9 M296,86 Q508,86 576,158.5 Q644,231 644,340 Q644,449 576,521.5 Q508,594 402,594 Q296,594 227.5,521.5 Q159,449 159,340 Q159,231 296,86"/> 
            <glyph glyph-name="ő" unicode="&#x151;" horiz-adv-x="496" d=" M311,502 L370,693 L477,693 L388,502 M149,502 L209,693 L316,693 L227,502 M366,-9 Q174,-9 108.5,54 Q43,117 43,210 Q43,303 108.5,366 Q174,429 270,429 Q366,429 431,366.5 Q496,304 496,210 Q496,116 366,-9 M214,78 Q326,78 359,115 Q392,152 392,210 Q392,268 359,304.5 Q326,341 270,341 Q214,341 180.5,304.5 Q147,268 147,210 Q147,152 214,78"/> 
            <glyph glyph-name="Œ" unicode="&#x152;" horiz-adv-x="933" d=" M409,0 Q248,0 149.5,94.5 Q51,189 51,340 Q51,491 149.5,585.5 Q248,680 409,680 L919,680 L919,587 L593,587 L593,387 L882,387 L882,296 L593,296 L593,93 L933,93 L933,0 M415,93 L488,93 L488,587 L415,587 Q289,587 224,520 Q159,453 159,340 Q159,227 224,160 Q289,93 415,93"/> 
            <glyph glyph-name="œ" unicode="&#x153;" horiz-adv-x="831" d=" M493,176 Q513,76 626,76 Q698,76 745,121 L804,59 Q736,-9 627,-9 Q499,-9 444,87 Q419,42 374,16.5 Q329,-9 270,-9 Q174,-9 108.5,54 Q43,117 43,210 Q43,303 108.5,366 Q174,429 270,429 Q391,429 443,334 Q468,378 512.5,403.5 Q557,429 615,429 Q720,429 778,358.5 Q836,288 831,176 M493,246 L729,246 Q713,345 615,345 Q566,345 534,319 Q502,293 493,246 M214,78 Q326,78 359,115 Q392,152 392,210 Q392,268 359,304.5 Q326,341 270,341 Q214,341 180.5,304.5 Q147,268 147,210 Q147,152 214,78"/> 
            <glyph glyph-name="Ŕ" unicode="&#x154;" horiz-adv-x="579" d=" M260,744 L320,934 L436,934 L338,744 M82,0 L82,680 L310,680 Q421,680 489,626 Q557,572 557,464 Q557,391 520.5,341.5 Q484,292 419,269 L579,0 L458,0 L311,252 L188,252 L188,0 M188,341 L306,341 Q448,341 448,464 Q448,587 306,587 L188,587"/> 
            <glyph glyph-name="ŕ" unicode="&#x155;" horiz-adv-x="355" d=" M166,499 L226,689 L342,689 L244,499 M64,0 L64,420 L165,420 L164,341 Q201,428 286,428 Q326,428 355,410 L321,319 Q293,333 266,333 Q165,333 165,204 L165,0"/> 
            <glyph glyph-name="Ŗ" unicode="&#x156;" horiz-adv-x="579" d=" M257,-269 L288,-171 Q273,-165 262.5,-149 Q252,-133 252,-114 Q252,-87 271,-68.5 Q290,-50 315,-50 Q341,-50 360,-68 Q379,-86 379,-113 Q379,-140 361,-173 L308,-269 M82,0 L82,680 L310,680 Q421,680 489,626 Q557,572 557,464 Q557,391 520.5,341.5 Q484,292 419,269 L579,0 L458,0 L311,252 L188,252 L188,0 M188,341 L306,341 Q448,341 448,464 Q448,587 306,587 L188,587"/> 
            <glyph glyph-name="ŗ" unicode="&#x157;" horiz-adv-x="355" d=" M59,-269 L90,-171 Q75,-165 64.5,-149 Q54,-133 54,-114 Q54,-87 73,-68.5 Q92,-50 117,-50 Q143,-50 162,-68 Q181,-86 181,-113 Q181,-140 163,-173 L110,-269 M64,0 L64,420 L165,420 L164,341 Q201,428 286,428 Q326,428 355,410 L321,319 Q293,333 266,333 Q165,333 165,204 L165,0"/> 
            <glyph glyph-name="Ř" unicode="&#x158;" horiz-adv-x="579" d=" M292,734 L149,938 L232,938 L297,854 L363,938 L446,938 L303,734 M82,0 L82,680 L310,680 Q421,680 489,626 Q557,572 557,464 Q557,391 520.5,341.5 Q484,292 419,269 L579,0 L458,0 L311,252 L188,252 L188,0 M188,341 L306,341 Q448,341 448,464 Q448,587 306,587 L188,587"/> 
            <glyph glyph-name="ř" unicode="&#x159;" horiz-adv-x="355" d=" M198,488 L55,692 L138,692 L203,608 L269,692 L352,692 L209,488 M64,0 L64,420 L165,420 L164,341 Q201,428 286,428 Q326,428 355,410 L321,319 Q293,333 266,333 Q165,333 165,204 L165,0"/> 
            <glyph glyph-name="Ś" unicode="&#x15A;" horiz-adv-x="487" d=" M216,744 L276,934 L392,934 L294,744 M266,-9 Q175,-9 113.5,30 Q52,69 21,132 L108,180 Q136,134 171.5,109.5 Q207,85 264,85 Q316,85 349,110.5 Q382,136 382,178 Q382,219 355.5,244 Q329,269 268,296 L223,316 Q142,352 103,396.5 Q64,441 64,515 Q64,591 117.5,639.5 Q171,688 255,688 Q387,688 447,581 L364,530 Q344,565 319,580.5 Q294,596 255,596 Q215,596 191,574 Q167,552 167,517 Q167,480 189,458.5 Q211,437 265,413 L309,393 Q402,352 444.5,304.5 Q487,257 487,179 Q487,92 425.5,41.5 Q364,-9 266,-9"/> 
            <glyph glyph-name="ś" unicode="&#x15B;" horiz-adv-x="377" d=" M170,499 L230,689 L346,689 L248,499 M214,-9 Q147,-9 98,16 Q49,41 26,78 L95,126 Q133,72 208,72 Q282,72 282,117 Q282,138 265,148 Q248,158 199,171 Q187,174 180,176 Q123,192 89.5,220.5 Q56,249 56,305 Q56,365 98,397 Q140,429 206,429 Q294,429 352,366 L293,308 Q257,349 206,349 Q147,349 147,310 Q147,288 165,278 Q183,268 239,254 Q269,246 289.5,238 Q310,230 332,215.5 Q354,201 365.5,177.5 Q377,154 377,122 Q377,63 337.5,27 Q298,-9 214,-9"/> 
            <glyph glyph-name="Ŝ" unicode="&#x15C;" horiz-adv-x="487" d=" M108,746 L251,951 L262,951 L405,746 L322,746 L257,830 L191,746 M266,-9 Q175,-9 113.5,30 Q52,69 21,132 L108,180 Q136,134 171.5,109.5 Q207,85 264,85 Q316,85 349,110.5 Q382,136 382,178 Q382,219 355.5,244 Q329,269 268,296 L223,316 Q142,352 103,396.5 Q64,441 64,515 Q64,591 117.5,639.5 Q171,688 255,688 Q387,688 447,581 L364,530 Q344,565 319,580.5 Q294,596 255,596 Q215,596 191,574 Q167,552 167,517 Q167,480 189,458.5 Q211,437 265,413 L309,393 Q402,352 444.5,304.5 Q487,257 487,179 Q487,92 425.5,41.5 Q364,-9 266,-9"/> 
            <glyph glyph-name="ŝ" unicode="&#x15D;" horiz-adv-x="377" d=" M60,501 L203,706 L214,706 L357,501 L274,501 L209,585 L143,501 M214,-9 Q147,-9 98,16 Q49,41 26,78 L95,126 Q133,72 208,72 Q282,72 282,117 Q282,138 265,148 Q248,158 199,171 Q187,174 180,176 Q123,192 89.5,220.5 Q56,249 56,305 Q56,365 98,397 Q140,429 206,429 Q294,429 352,366 L293,308 Q257,349 206,349 Q147,349 147,310 Q147,288 165,278 Q183,268 239,254 Q269,246 289.5,238 Q310,230 332,215.5 Q354,201 365.5,177.5 Q377,154 377,122 Q377,63 337.5,27 Q298,-9 214,-9"/> 
            <glyph glyph-name="Ş" unicode="&#x15E;" horiz-adv-x="487" d=" M268,-236 Q191,-236 158,-177 L210,-145 Q226,-178 260,-178 Q278,-178 290,-167.5 Q302,-157 302,-138 Q302,-119 289,-107.5 Q276,-96 253,-96 L226,-96 L226,-6 Q82,9 21,132 L108,180 Q136,134 171.5,109.5 Q207,85 264,85 Q316,85 349,110.5 Q382,136 382,178 Q382,219 355.5,244 Q329,269 268,296 L223,316 Q142,352 103,396.5 Q64,441 64,515 Q64,591 117.5,639.5 Q171,688 255,688 Q387,688 447,581 L364,530 Q344,565 319,580.5 Q294,596 255,596 Q215,596 191,574 Q167,552 167,517 Q167,480 189,458.5 Q211,437 265,413 L309,393 Q402,352 444.5,304.5 Q487,257 487,179 Q487,95 431,46 Q375,-3 283,-8 L283,-46 Q320,-53 344.5,-78 Q369,-103 369,-143 Q369,-185 339,-210.5 Q309,-236 268,-236"/> 
            <glyph glyph-name="ş" unicode="&#x15F;" horiz-adv-x="377" d=" M213,-236 Q136,-236 103,-177 L155,-145 Q172,-178 205,-178 Q223,-178 235,-167.5 Q247,-157 247,-138 Q247,-119 234,-107.5 Q221,-96 198,-96 L171,-96 L171,-6 Q68,8 26,78 L95,126 Q133,72 208,72 Q282,72 282,117 Q282,138 265,148 Q248,158 199,171 Q187,174 180,176 Q123,192 89.5,220.5 Q56,249 56,305 Q56,365 98,397 Q140,429 206,429 Q294,429 352,366 L293,308 Q257,349 206,349 Q147,349 147,310 Q147,288 165,278 Q183,268 239,254 Q269,246 289.5,238 Q310,230 332,215.5 Q354,201 365.5,177.5 Q377,154 377,122 Q377,66 341,30.5 Q305,-5 228,-8 L228,-46 Q265,-53 289.5,-78 Q314,-103 314,-143 Q314,-185 284,-210.5 Q254,-236 213,-236"/> 
            <glyph glyph-name="Š" unicode="&#x160;" horiz-adv-x="487" d=" M251,734 L108,938 L191,938 L256,854 L322,938 L405,938 L262,734 M266,-9 Q175,-9 113.5,30 Q52,69 21,132 L108,180 Q136,134 171.5,109.5 Q207,85 264,85 Q316,85 349,110.5 Q382,136 382,178 Q382,219 355.5,244 Q329,269 268,296 L223,316 Q142,352 103,396.5 Q64,441 64,515 Q64,591 117.5,639.5 Q171,688 255,688 Q387,688 447,581 L364,530 Q344,565 319,580.5 Q294,596 255,596 Q215,596 191,574 Q167,552 167,517 Q167,480 189,458.5 Q211,437 265,413 L309,393 Q402,352 444.5,304.5 Q487,257 487,179 Q487,92 425.5,41.5 Q364,-9 266,-9"/> 
            <glyph glyph-name="š" unicode="&#x161;" horiz-adv-x="377" d=" M203,488 L60,692 L143,692 L208,608 L274,692 L357,692 L214,488 M214,-9 Q147,-9 98,16 Q49,41 26,78 L95,126 Q133,72 208,72 Q282,72 282,117 Q282,138 265,148 Q248,158 199,171 Q187,174 180,176 Q123,192 89.5,220.5 Q56,249 56,305 Q56,365 98,397 Q140,429 206,429 Q294,429 352,366 L293,308 Q257,349 206,349 Q147,349 147,310 Q147,288 165,278 Q183,268 239,254 Q269,246 289.5,238 Q310,230 332,215.5 Q354,201 365.5,177.5 Q377,154 377,122 Q377,63 337.5,27 Q298,-9 214,-9"/> 
            <glyph glyph-name="Ţ" unicode="&#x162;" horiz-adv-x="541" d=" M228,-269 L259,-171 Q244,-165 233.5,-149 Q223,-133 223,-114 Q223,-87 242,-68.5 Q261,-50 286,-50 Q312,-50 331,-68 Q350,-86 350,-113 Q350,-140 332,-173 L279,-269 M234,0 L234,587 L32,587 L32,680 L541,680 L541,587 L339,587 L339,0"/> 
            <glyph glyph-name="ţ" unicode="&#x163;" horiz-adv-x="334" d=" M141,-269 L172,-171 Q157,-165 146.5,-149 Q136,-133 136,-114 Q136,-87 155,-68.5 Q174,-50 199,-50 Q225,-50 244,-68 Q263,-86 263,-113 Q263,-140 245,-173 L192,-269 M225,-10 Q96,-10 96,142 L96,335 L33,335 L33,420 L96,420 L96,582 L197,582 L197,420 L309,420 L309,335 L197,335 L197,140 Q197,77 239,77 Q265,77 292,99 L334,30 Q290,-10 225,-10"/> 
            <glyph glyph-name="Ť" unicode="&#x164;" horiz-adv-x="541" d=" M280,734 L137,938 L220,938 L285,854 L351,938 L434,938 L291,734 M234,0 L234,587 L32,587 L32,680 L541,680 L541,587 L339,587 L339,0"/> 
            <glyph glyph-name="ť" unicode="&#x165;" horiz-adv-x="460" d=" M330,452 L366,561 Q350,567 338.5,583.5 Q327,600 327,621 Q327,649 347,668 Q367,687 393,687 Q420,687 440,668 Q460,649 460,622 Q460,599 439,559 L381,452 M225,-10 Q96,-10 96,142 L96,335 L33,335 L33,420 L96,420 L96,582 L197,582 L197,420 L309,420 L309,335 L197,335 L197,140 Q197,77 239,77 Q265,77 292,99 L334,30 Q290,-10 225,-10"/> 
            <glyph glyph-name="Ū" unicode="&#x16A;" horiz-adv-x="596" d=" M337,-9 Q221,-9 149.5,55 Q78,119 78,239 L78,680 L184,680 L184,245 Q184,86 337,86 Q491,86 491,245 L491,680 L596,680 L596,239 Q596,119 524,55 Q452,-9 337,-9 M213,759 L213,835 L459,835 L459,759"/> 
            <glyph glyph-name="ū" unicode="&#x16B;" horiz-adv-x="456" d=" M216,-9 Q146,-9 103,38.5 Q60,86 60,170 L60,420 L161,420 L161,178 Q161,83 248,83 Q298,83 326.5,112 Q355,141 355,192 L355,420 L456,420 L456,0 L355,0 L357,77 Q337,36 300.5,13.5 Q264,-9 216,-9 M137,528 L137,604 L383,604 L383,528"/> 
            <glyph glyph-name="Ŭ" unicode="&#x16C;" horiz-adv-x="596" d=" M337,-9 Q221,-9 149.5,55 Q78,119 78,239 L78,680 L184,680 L184,245 Q184,86 337,86 Q491,86 491,245 L491,680 L596,680 L596,239 Q596,119 524,55 Q452,-9 337,-9 M399,744 Q273,744 235,779 Q197,814 190,871 L269,884 Q281,820 336,820 Q391,820 403,884 L482,871 Q475,814 399,744"/> 
            <glyph glyph-name="ŭ" unicode="&#x16D;" horiz-adv-x="456" d=" M216,-9 Q146,-9 103,38.5 Q60,86 60,170 L60,420 L161,420 L161,178 Q161,83 248,83 Q298,83 326.5,112 Q355,141 355,192 L355,420 L456,420 L456,0 L355,0 L357,77 Q337,36 300.5,13.5 Q264,-9 216,-9 M323,500 Q197,500 159,535 Q121,570 114,627 L193,640 Q205,576 260,576 Q315,576 327,640 L406,627 Q399,570 323,500"/> 
            <glyph glyph-name="Ů" unicode="&#x16E;" horiz-adv-x="596" d=" M385,700 Q287,700 253,732 Q219,764 219,809 Q219,855 253,887 Q287,919 336,919 Q385,919 419,887 Q453,855 453,809 Q453,764 385,700 M315,759 Q357,759 370.5,772.5 Q384,786 384,809 Q384,833 370.5,846.5 Q357,860 336,860 Q315,860 301.5,846 Q288,832 288,809 Q288,786 315,759 M337,-9 Q221,-9 149.5,55 Q78,119 78,239 L78,680 L184,680 L184,245 Q184,86 337,86 Q491,86 491,245 L491,680 L596,680 L596,239 Q596,119 524,55 Q452,-9 337,-9"/> 
            <glyph glyph-name="ů" unicode="&#x16F;" horiz-adv-x="456" d=" M309,479 Q211,479 177,511 Q143,543 143,588 Q143,634 177,666 Q211,698 260,698 Q309,698 343,666 Q377,634 377,588 Q377,543 309,479 M239,538 Q281,538 294.5,551.5 Q308,565 308,588 Q308,612 294.5,625.5 Q281,639 260,639 Q239,639 225.5,625 Q212,611 212,588 Q212,565 239,538 M216,-9 Q146,-9 103,38.5 Q60,86 60,170 L60,420 L161,420 L161,178 Q161,83 248,83 Q298,83 326.5,112 Q355,141 355,192 L355,420 L456,420 L456,0 L355,0 L357,77 Q337,36 300.5,13.5 Q264,-9 216,-9"/> 
            <glyph glyph-name="Ű" unicode="&#x170;" horiz-adv-x="596" d=" M337,-9 Q221,-9 149.5,55 Q78,119 78,239 L78,680 L184,680 L184,245 Q184,86 337,86 Q491,86 491,245 L491,680 L596,680 L596,239 Q596,119 524,55 Q452,-9 337,-9 M378,760 L437,951 L544,951 L455,760 M216,760 L276,951 L383,951 L294,760"/> 
            <glyph glyph-name="ű" unicode="&#x171;" horiz-adv-x="468" d=" M216,-9 Q146,-9 103,38.5 Q60,86 60,170 L60,420 L161,420 L161,178 Q161,83 248,83 Q298,83 326.5,112 Q355,141 355,192 L355,420 L456,420 L456,0 L355,0 L357,77 Q337,36 300.5,13.5 Q264,-9 216,-9 M302,502 L361,693 L468,693 L379,502 M140,502 L200,693 L307,693 L218,502"/> 
            <glyph glyph-name="Ų" unicode="&#x172;" horiz-adv-x="596" d=" M312,-8 Q206,-1 142,62.5 Q78,126 78,239 L78,680 L184,680 L184,245 Q184,86 337,86 Q491,86 491,245 L491,680 L596,680 L596,239 Q596,131 536.5,68 Q477,5 378,-7 L344,-63 Q331,-85 326.5,-93.5 Q322,-102 318,-114 Q314,-126 314,-139 Q314,-156 324,-166 Q334,-176 349,-176 Q377,-176 396,-145 L449,-176 Q417,-236 343,-236 Q301,-236 272.5,-211.5 Q244,-187 244,-141 Q244,-95 284,-44"/> 
            <glyph glyph-name="ų" unicode="&#x173;" horiz-adv-x="509" d=" M378,0 L355,0 L357,77 Q337,36 300.5,13.5 Q264,-9 216,-9 Q146,-9 103,38.5 Q60,86 60,170 L60,420 L161,420 L161,178 Q161,83 248,83 Q298,83 326.5,112 Q355,141 355,192 L355,420 L456,420 L456,23 L404,-63 Q391,-85 386.5,-93.5 Q382,-102 378,-114 Q374,-126 374,-139 Q374,-156 384,-166 Q394,-176 409,-176 Q437,-176 456,-145 L509,-176 Q477,-236 403,-236 Q361,-236 332.5,-211.5 Q304,-187 304,-141 Q304,-95 344,-44"/> 
            <glyph glyph-name="Ÿ" unicode="&#x178;" horiz-adv-x="596" d=" M264,0 L264,249 L27,680 L146,680 L277,435 L318,338 Q340,397 359,435 L487,680 L596,680 L370,256 L370,0 M435,749 Q387,749 369,767 Q351,785 351,809 Q351,834 369,852 Q387,870 411,870 Q435,870 453.5,852 Q472,834 472,809 Q472,785 435,749 M247,749 Q199,749 180.5,767 Q162,785 162,809 Q162,834 180.5,852 Q199,870 223,870 Q247,870 265,852 Q283,834 283,809 Q283,784 247,749"/> 
            <glyph glyph-name="Ź" unicode="&#x179;" horiz-adv-x="542" d=" M268,744 L328,934 L444,934 L346,744 M33,0 L33,11 L377,587 L88,587 L88,680 L542,680 L542,669 L200,93 L535,93 L535,0"/> 
            <glyph glyph-name="ź" unicode="&#x17A;" horiz-adv-x="399" d=" M184,499 L244,689 L360,689 L262,499 M28,0 L28,11 L244,338 L52,338 L52,420 L399,420 L399,409 L182,82 L388,82 L388,0"/> 
            <glyph glyph-name="Ż" unicode="&#x17B;" horiz-adv-x="542" d=" M33,0 L33,11 L377,587 L88,587 L88,680 L542,680 L542,669 L200,93 L535,93 L535,0 M335,743 Q279,743 259.5,762 Q240,781 240,810 Q240,838 260,857 Q280,876 307,876 Q334,876 354,857 Q374,838 374,810 Q374,781 335,743"/> 
            <glyph glyph-name="ż" unicode="&#x17C;" horiz-adv-x="399" d=" M28,0 L28,11 L244,338 L52,338 L52,420 L399,420 L399,409 L182,82 L388,82 L388,0 M251,516 Q195,516 175.5,535 Q156,554 156,583 Q156,611 176,630 Q196,649 223,649 Q250,649 270,630 Q290,611 290,583 Q290,554 251,516"/> 
            <glyph glyph-name="Ž" unicode="&#x17D;" horiz-adv-x="542" d=" M300,734 L157,938 L240,938 L305,854 L371,938 L454,938 L311,734 M33,0 L33,11 L377,587 L88,587 L88,680 L542,680 L542,669 L200,93 L535,93 L535,0"/> 
            <glyph glyph-name="ž" unicode="&#x17E;" horiz-adv-x="399" d=" M216,488 L73,692 L156,692 L221,608 L287,692 L370,692 L227,488 M28,0 L28,11 L244,338 L52,338 L52,420 L399,420 L399,409 L182,82 L388,82 L388,0"/> 
            <glyph glyph-name="ƒ" unicode="&#x192;" horiz-adv-x="392" d=" M199,193 L153,-212 L54,-212 L100,193 L35,193 L35,272 L109,272 L131,468 Q148,618 276,618 Q352,618 392,561 L328,505 Q310,532 281,532 Q238,532 231,474 L208,272 L308,272 L308,193"/> 
            <glyph glyph-name="Ș" unicode="&#x218;" horiz-adv-x="487" d=" M199,-269 L230,-171 Q215,-165 204.5,-149 Q194,-133 194,-114 Q194,-87 213,-68.5 Q232,-50 257,-50 Q283,-50 302,-68 Q321,-86 321,-113 Q321,-140 303,-173 L250,-269 M266,-9 Q175,-9 113.5,30 Q52,69 21,132 L108,180 Q136,134 171.5,109.5 Q207,85 264,85 Q316,85 349,110.5 Q382,136 382,178 Q382,219 355.5,244 Q329,269 268,296 L223,316 Q142,352 103,396.5 Q64,441 64,515 Q64,591 117.5,639.5 Q171,688 255,688 Q387,688 447,581 L364,530 Q344,565 319,580.5 Q294,596 255,596 Q215,596 191,574 Q167,552 167,517 Q167,480 189,458.5 Q211,437 265,413 L309,393 Q402,352 444.5,304.5 Q487,257 487,179 Q487,92 425.5,41.5 Q364,-9 266,-9"/> 
            <glyph glyph-name="ș" unicode="&#x219;" horiz-adv-x="377" d=" M151,-269 L182,-171 Q167,-165 156.5,-149 Q146,-133 146,-114 Q146,-87 165,-68.5 Q184,-50 209,-50 Q235,-50 254,-68 Q273,-86 273,-113 Q273,-140 255,-173 L202,-269 M214,-9 Q147,-9 98,16 Q49,41 26,78 L95,126 Q133,72 208,72 Q282,72 282,117 Q282,138 265,148 Q248,158 199,171 Q187,174 180,176 Q123,192 89.5,220.5 Q56,249 56,305 Q56,365 98,397 Q140,429 206,429 Q294,429 352,366 L293,308 Q257,349 206,349 Q147,349 147,310 Q147,288 165,278 Q183,268 239,254 Q269,246 289.5,238 Q310,230 332,215.5 Q354,201 365.5,177.5 Q377,154 377,122 Q377,63 337.5,27 Q298,-9 214,-9"/> 
            <glyph glyph-name="Ț" unicode="&#x21A;" horiz-adv-x="541" d=" M234,0 L234,587 L32,587 L32,680 L541,680 L541,587 L339,587 L339,0 L312,0 L312,-46 Q349,-53 373.5,-78 Q398,-103 398,-143 Q398,-185 368,-210.5 Q338,-236 297,-236 Q220,-236 187,-177 L239,-145 Q256,-178 289,-178 Q307,-178 319,-167.5 Q331,-157 331,-138 Q331,-119 318,-107.5 Q305,-96 282,-96 L255,-96 L255,0"/> 
            <glyph glyph-name="ț" unicode="&#x21B;" horiz-adv-x="334" d=" M225,-10 L224,-10 L224,-46 Q260,-53 285,-78 Q310,-103 310,-143 Q310,-185 279.5,-210.5 Q249,-236 208,-236 Q131,-236 98,-177 L151,-145 Q168,-178 201,-178 Q219,-178 230.5,-167.5 Q242,-157 242,-138 Q242,-119 229.5,-107.5 Q217,-96 194,-96 L166,-96 L166,1 Q96,30 96,142 L96,335 L33,335 L33,420 L96,420 L96,582 L197,582 L197,420 L309,420 L309,335 L197,335 L197,140 Q197,77 239,77 Q265,77 292,99 L334,30 Q290,-10 225,-10"/> 
            <glyph glyph-name="ȷ" unicode="&#x237;" horiz-adv-x="169" d=" M38,-222 Q-27,-222 -65,-176 L-13,-116 Q8,-135 28,-135 Q67,-135 67,-86 L67,420 L169,420 L169,-83 Q169,-150 134.5,-186 Q100,-222 38,-222"/> 
            <glyph glyph-name="ˆ" unicode="&#x2C6;" horiz-adv-x="398" d=" M101,501 L244,706 L255,706 L398,501 L315,501 L250,585 L184,501"/> 
            <glyph glyph-name="ˇ" unicode="&#x2C7;" horiz-adv-x="399" d=" M245,488 L102,692 L185,692 L250,608 L316,692 L399,692 L256,488"/> 
            </font>
</defs>
</svg>
